<svg xmlns:dc="http://purl.org/dc/elements/1.1/" xmlns:cc="http://creativecommons.org/ns#" xmlns:rdf="http://www.w3.org/1999/02/22-rdf-syntax-ns#" xmlns:svg="http://www.w3.org/2000/svg" xmlns="http://www.w3.org/2000/svg" xmlns:sodipodi="http://sodipodi.sourceforge.net/DTD/sodipodi-0.dtd" xmlns:inkscape="http://www.inkscape.org/namespaces/inkscape" viewBox="0 0 80 80" version="1.1" x="0px" y="0px"><path style="" d="m 63.048817,21.770829 -6.912498,-0.228397 c -0.478692,-0.01578 -0.885574,0.622593 -0.912296,1.431405 l -0.747661,22.629087 c -0.02675,0.808783 0.337136,1.472673 0.815819,1.488482 l 6.912497,0.22837 c 0.47869,0.01578 0.885575,-0.622594 0.912296,-1.431406 l 0.747669,-22.629059 c 0.02675,-0.808809 -0.337134,-1.472673 -0.815826,-1.488479 z" fill="#000000" fill-opacity="1" stroke="none"></path><path style="" d="m 54.460299,15.376178 c 0,3.025291 2.452474,5.477757 5.477762,5.477757 3.025285,0 5.477759,-2.452466 5.477759,-5.477757 0,-3.02529 -2.452474,-5.4777561 -5.477759,-5.4777561 -3.025288,0 -5.477762,2.4524661 -5.477762,5.4777561 z" fill="#000000" fill-opacity="1" stroke="none"></path><path d="m 62.653942,21.933003 c 0.546061,-0.264863 1.196597,-0.03933 1.461519,0.506663 l 4.217292,8.692812 0.02167,0.04468 c 0.40639,0.89684 0.02515,1.958805 -0.866138,2.391146 -0.891174,0.432341 -1.961301,0.07464 -2.414171,-0.799697 -0.0075,-0.01337 -0.01472,-0.02997 -0.02167,-0.04468 l -4.217292,-8.692812 c -0.264916,-0.546072 -0.03941,-1.196617 0.506666,-1.461532 l 1.312123,-0.63658 z" style="" fill="#000000" fill-opacity="1" stroke="none"></path><path d="m 65.657005,31.10342 c 0.660805,-0.729252 1.779087,-0.799865 2.525854,-0.171304 0.01819,0.01391 0.03157,0.02959 0.05014,0.04404 l 6.975473,6.320728 c 0.449675,0.407574 0.482914,1.095551 0.07609,1.544983 l -0.979266,1.080705 c -0.407549,0.44975 -1.095212,0.483639 -1.544975,0.07606 l -6.97547,-6.320719 c -0.01605,-0.01552 -0.03395,-0.02839 -0.05014,-0.04404 -0.698873,-0.681374 -0.738541,-1.801174 -0.07769,-2.530448 z" style="" fill="#000000" fill-opacity="1" stroke="none"></path><path d="m 61.039699,44.003647 c 0.51845,-0.315639 1.201616,-0.161352 1.517163,0.357072 l 4.911184,8.069312 0.0089,0.01525 c 0.836601,1.391927 0.408626,3.185195 -0.966531,4.022149 -1.375161,0.836985 -3.17877,0.401937 -4.030795,-0.980678 -0.0026,-0.0051 -0.0058,-0.01012 -0.0089,-0.01525 L 57.55954,47.402191 c -0.315531,-0.518465 -0.152764,-1.187467 0.365676,-1.503026 l 3.11448,-1.895548 z" style="" fill="#000000" fill-opacity="1" stroke="none"></path><path d="m 63.998514,52.099092 c 1.440614,-0.730897 3.197533,-0.144149 3.935821,1.311042 l 6.380906,12.577191 c 0.274605,0.541264 0.04591,1.2032 -0.495328,1.477817 l -3.251465,1.649571 c -0.541245,0.274631 -1.195704,0.0607 -1.470294,-0.480545 L 62.717249,56.056977 c -0.738292,-1.455194 -0.159372,-3.227004 1.281265,-3.957885 z" style="" fill="#000000" fill-opacity="1" stroke="none"></path><path style="" d="m 59.451148,46.453122 c 0.502936,0.339732 0.64757,1.024979 0.307826,1.527913 l -5.287839,7.827667 -0.0094,0.01445 c -0.916537,1.340645 -2.724995,1.699101 -4.058977,0.797969 -1.333986,-0.901156 -1.690271,-2.721973 -0.78869,-4.072712 0.0029,-0.0029 0.0062,-0.0086 0.0094,-0.01445 l 5.287831,-7.827692 c 0.339755,-0.502911 1.01571,-0.633835 1.518633,-0.294179 l 3.021208,2.040925 z" fill="#000000" fill-opacity="1" stroke="none"></path><path style="" d="m 53.506168,52.518252 c 1.210023,1.070252 1.311516,2.919771 0.230431,4.142041 l -9.343625,10.563996 c -0.402111,0.454627 -1.10176,0.485773 -1.556368,0.08366 L 40.105601,64.892441 C 39.650966,64.49034 39.608847,63.80311 40.011052,63.348475 l 9.343621,-10.563998 c 1.081094,-1.222268 2.941571,-1.336483 4.151599,-0.266227 z" fill="#000000" fill-opacity="1" stroke="none"></path><path style="" d="m 46.041277,27.650067 c -0.38058,-0.907542 0.02927,-1.950431 0.915014,-2.360513 0.02034,-0.0107 0.04019,-0.01605 0.06113,-0.02675 l 8.680815,-3.64036 c 0.559714,-0.234631 1.196964,0.02675 1.431683,0.585694 l 0.563999,1.344912 c 0.234712,0.559716 -0.02595,1.196991 -0.585688,1.431702 l -8.680815,3.640334 c -0.02087,0.008 -0.0401,0.01873 -0.06113,0.02675 -0.913299,0.344348 -1.944428,-0.09417 -2.325009,-1.001768 z" fill="#000000" fill-opacity="1" stroke="none"></path><path style="" d="m 39.188537,34.10501 c -0.421561,-0.43664 -0.409517,-1.125037 0.02716,-1.546615 l 6.9508,-6.710945 0.03578,-0.03453 c 0.726034,-0.665083 1.853909,-0.632791 2.541922,0.07978 0.687988,0.712588 0.680689,1.840901 -0.0094,2.54315 -0.01097,0.0115 -0.02408,0.02328 -0.03578,0.03451 l -6.950798,6.710943 c -0.436646,0.421573 -1.125045,0.409494 -1.546609,-0.02716 l -1.013088,-1.049134 z" fill="#000000" fill-opacity="1" stroke="none"></path><path d="M 25.011626,21.679378 18.099128,21.45098 c -0.478692,-0.01578 -0.885574,0.622593 -0.912296,1.431405 L 16.43917,45.511471 c -0.02675,0.808783 0.337136,1.472673 0.81582,1.488482 l 6.912497,0.22837 c 0.47869,0.01578 0.885576,-0.622592 0.912297,-1.431405 l 0.74767,-22.62906 c 0.02675,-0.808809 -0.337136,-1.472672 -0.815828,-1.488478 z" style="" fill="#000000" fill-opacity="1" stroke="none"></path><path style="" d="m 21.891602,9.8049709 c -2.344599,0 -4.301664,1.4737931 -5.083218,3.5448761 l 0.267538,0.200653 c 3.077333,-0.537518 5.950582,-1.392513 9.564477,-1.003267 -0.947137,-1.637274 -2.721272,-2.7422621 -4.748797,-2.7422621 z m -4.81568,4.6150271 -0.60196,0.468191 c -0.0095,0.131816 -0.06689,0.267083 -0.06689,0.401307 0,3.025291 2.459238,5.484525 5.484525,5.484525 2.766389,0 5.0464,-2.084641 5.417641,-4.748796 -5.886225,-1.347098 -9.33709,-1.448583 -10.233321,-1.605227 z" fill="#000000" fill-opacity="1" stroke="none"></path><path style="" d="m 24.166597,21.934731 c 0.453346,-0.403501 1.140709,-0.36356 1.544247,0.08971 l 6.424241,7.216626 0.03301,0.03708 c 0.635164,0.752357 0.557386,1.877995 -0.182568,2.536622 -0.739838,0.658593 -1.866924,0.605692 -2.540689,-0.112365 -0.01097,-0.0107 -0.02221,-0.02489 -0.03301,-0.03708 l -6.424241,-7.216627 c -0.403554,-0.45334 -0.363639,-1.140703 0.08971,-1.54426 l 1.089302,-0.969702 z" fill="#000000" fill-opacity="1" stroke="none"></path><path style="" d="m 29.422305,29.795827 c 0.437352,-0.881586 1.494186,-1.253931 2.38385,-0.852376 0.0214,0.0086 0.03841,0.0198 0.06022,0.02874 l 8.432591,4.183328 c 0.543637,0.269782 0.762889,0.922735 0.49376,1.465934 l -0.648121,1.306456 c -0.269738,0.543701 -0.922209,0.763494 -1.465934,0.493733 l -8.432585,-4.183328 c -0.0198,-0.01043 -0.0404,-0.01819 -0.06022,-0.02873 -0.857953,-0.465411 -1.200935,-1.532132 -0.76355,-2.413752 z" fill="#000000" fill-opacity="1" stroke="none"></path><path style="" d="m 23.002508,43.912195 c 0.51845,-0.315638 1.201617,-0.161352 1.517164,0.357071 l 4.911183,8.069313 0.0089,0.01525 c 0.836602,1.391927 0.408626,3.185196 -0.966531,4.022151 -1.37516,0.836983 -3.17877,0.401935 -4.030795,-0.98068 -0.0026,-0.0051 -0.0058,-0.01012 -0.0089,-0.01525 l -4.911181,-8.069313 c -0.315532,-0.518464 -0.152765,-1.187467 0.365675,-1.503024 l 3.11448,-1.895549 z" fill="#000000" fill-opacity="1" stroke="none"></path><path style="" d="m 25.961324,52.00764 c 1.440613,-0.730898 3.197532,-0.14415 3.935821,1.311042 l 6.380905,12.57719 c 0.274606,0.541264 0.04591,1.203202 -0.495328,1.477818 l -3.251464,1.649572 c -0.541245,0.274629 -1.195704,0.0607 -1.470295,-0.480547 L 24.680058,55.965524 C 23.941767,54.51033 24.520686,52.738521 25.961324,52.00764 z" fill="#000000" fill-opacity="1" stroke="none"></path><path d="m 21.413957,46.361669 c 0.502936,0.339733 0.64757,1.02498 0.307826,1.527914 l -5.287841,7.827667 -0.0094,0.01445 c -0.916537,1.340645 -2.724997,1.699101 -4.058977,0.797969 -1.333987,-0.901155 -1.690273,-2.721972 -0.788691,-4.072712 0.0029,-0.0029 0.0062,-0.0086 0.0094,-0.01445 l 5.28783,-7.827694 c 0.339754,-0.502909 1.015713,-0.633834 1.518636,-0.294179 l 3.021207,2.040925 z" style="" fill="#000000" fill-opacity="1" stroke="none"></path><path d="m 16.022613,51.71498 c 1.210025,1.070253 1.311517,2.919771 0.230431,4.142042 L 6.9094198,66.421018 c -0.402112,0.454626 -1.1017608,0.485773 -1.5563692,0.08366 L 2.6220461,64.089168 C 2.167411,63.687067 2.1252926,62.999837 2.5274982,62.545202 L 11.87112,51.981205 c 1.081094,-1.222268 2.94157,-1.336483 4.151598,-0.266228 z" style="" fill="#000000" fill-opacity="1" stroke="none"></path><path d="m 7.9249954,27.598159 c -0.3805807,-0.907542 0.029267,-1.950431 0.915014,-2.360513 0.020328,-0.0107 0.040187,-0.01605 0.06113,-0.02675 l 8.6808182,-3.64036 c 0.559712,-0.23463 1.196964,0.02675 1.431682,0.585693 l 0.563999,1.344914 c 0.234711,0.559715 -0.02595,1.196991 -0.585688,1.431701 l -8.680818,3.640334 c -0.02087,0.008 -0.0401,0.01873 -0.06113,0.02675 -0.9132994,0.344347 -1.9444268,-0.09417 -2.3250076,-1.001769 z" style="" fill="#000000" fill-opacity="1" stroke="none"></path><path d="m 1.3095289,33.89492 c -0.421562,-0.43664 -0.4095175,-1.125036 0.027155,-1.546614 l 6.9508014,-6.710945 0.035775,-0.03454 c 0.7260331,-0.665083 1.8539087,-0.632792 2.5419217,0.07978 0.687987,0.712587 0.680689,1.840901 -0.0094,2.543151 -0.01097,0.0115 -0.02408,0.02328 -0.03578,0.03451 L 3.8692221,34.971203 C 3.4325763,35.392775 2.7441774,35.380695 2.3226128,34.944043 L 1.3095289,33.894918 z" style="" fill="#000000" fill-opacity="1" stroke="none"></path><path style="text-indent:0;text-transform:none;direction:ltr;block-progression:tb;baseline-shift:baseline;color:#000000;enable-background:accumulate;" d="m 14.902178,11.393477 -0.167212,0.167211 -1.003266,1.170478 -0.167212,0.250816 0.250817,0.08361 1.588505,0.836056 -1.170478,0.418028 -0.16721,0.08361 0,0.167211 0.16721,1.755717 0,0.418028 0.334423,-0.250817 2.591772,-1.839322 c 0.53029,0.0792 1.523067,0.145032 3.177012,0.334422 1.74009,0.199263 4.129569,0.566512 7.106474,1.254084 l 0.16721,0.08361 0.08361,-0.250816 c 0.4311,-1.419086 -0.01632,-2.625501 -0.668844,-3.678645 l -0.08361,-0.08361 -0.08361,0 c -3.692716,-0.440894 -6.639176,0.457302 -9.698247,1.003267 l -2.090138,-1.755717 -0.167212,-0.167211 z m 0,0.668844 2.006533,1.672112 0.08361,0 0.08361,0 c 3.096026,-0.540782 5.962589,-1.305382 9.531034,-0.919662 0.539889,0.907494 0.948565,1.806051 0.668845,2.926195 -2.844788,-0.643481 -5.165277,-0.976917 -6.855656,-1.170478 -1.753943,-0.200841 -2.940465,-0.263846 -3.344223,-0.334423 l -0.08361,0 -0.08361,0 -2.25735,1.588507 -0.08361,-1.086873 1.421294,-0.585239 0.501634,-0.167211 -0.418028,-0.250816 -1.755716,-0.919662 0.585239,-0.75245 z" fill="#000000" fill-opacity="1" fill-rule="nonzero" stroke="none" marker="none" visibility="visible" display="inline" overflow="visible"></path></svg>