<?xml version="1.0" encoding="UTF-8" standalone="no"?>
<svg
   xmlns:dc="http://purl.org/dc/elements/1.1/"
   xmlns:cc="http://creativecommons.org/ns#"
   xmlns:rdf="http://www.w3.org/1999/02/22-rdf-syntax-ns#"
   xmlns:svg="http://www.w3.org/2000/svg"
   xmlns="http://www.w3.org/2000/svg"
   xmlns:sodipodi="http://sodipodi.sourceforge.net/DTD/sodipodi-0.dtd"
   xmlns:inkscape="http://www.inkscape.org/namespaces/inkscape"
   version="1.1"
   x="0px"
   y="0px"
   viewBox="-2.341 -0.166 100 118.92875000000001"
   enable-background="new -2.341 -0.166 100 95.143"
   xml:space="preserve"
   id="svg2"
   inkscape:version="0.91 r13725"
   sodipodi:docname="bmx.svg"><metadata
     id="metadata16"><rdf:RDF><cc:Work
         rdf:about=""><dc:format>image/svg+xml</dc:format><dc:type
           rdf:resource="http://purl.org/dc/dcmitype/StillImage" /></cc:Work></rdf:RDF></metadata><defs
     id="defs14" /><sodipodi:namedview
     pagecolor="#ffffff"
     bordercolor="#666666"
     borderopacity="1"
     objecttolerance="10"
     gridtolerance="10"
     guidetolerance="10"
     inkscape:pageopacity="0"
     inkscape:pageshadow="2"
     inkscape:window-width="640"
     inkscape:window-height="480"
     id="namedview12"
     showgrid="false"
     inkscape:zoom="1.9843814"
     inkscape:cx="50"
     inkscape:cy="59.464375"
     inkscape:window-x="75"
     inkscape:window-y="34"
     inkscape:window-maximized="0"
     inkscape:current-layer="svg2" /><path
     d="M-1.698,70.828c2.469,8.418,11.29,13.245,19.72,10.774c8.417-2.468,13.239-11.296,10.769-19.713  c-1.008-3.453-3.114-6.29-5.804-8.288l1.751-3.367l17.467,16.429c-1.396,3.442,0.223,7.379,3.655,8.824  c0.653,0.273,1.316,0.44,1.988,0.504l8.829,2.214c-0.107,1.759,0.073,3.566,0.6,5.356c2.47,8.419,11.293,13.239,19.718,10.768  c8.413-2.461,13.238-11.294,10.774-19.704C85.301,66.2,76.476,61.378,68.054,63.841c-0.249,0.072-0.484,0.176-0.727,0.259  c-0.014-0.418-0.063-0.819-0.131-1.202c-0.186-0.911-0.786-3.757-1.418-6.77l10.729,2.047l0.282,0.057  c0.742,0.134,1.462-0.345,1.597-1.087c0.127-0.642-0.222-1.263-0.809-1.505l-12.411-5.26l-0.556-0.239  c-0.04-0.017-0.082-0.024-0.123-0.039c-0.112-0.504-0.208-0.971-0.291-1.365c0.111,0.023,0.219,0.051,0.317,0.093l18.401,6.732  c9.974,4.029,23.996-8.667,6.243-27.142c-6.18-6.427-13.398-13.461-13.398-13.461c-2.572-1.639-12.021,3.153-16.108,5.125  c-2.606,0.917-4.22,4.032-9.869,4.032c-3.925,0-12.359-0.183-17.607-0.29l-4.709-0.2c-0.838-0.037-1.546,0.618-1.585,1.459  c0,0,0,9.477,0,13.28c0,2.123,0.823,2.824,1.486,3.386c0.719,0.604,2.819,2.364,3.574,2.936c0.743,0.56,1.8,0.419,2.358-0.324  c0.517-0.683,0.444-1.635-0.153-2.218c-0.67-0.665-1.365-1.291-2.053-1.93c-0.222-0.209-0.453-0.414-0.681-0.619  c1.408-1.501,2.79-3.021,4.152-4.562c0.021-0.004,0.032-0.004,0.039-0.004c1.248,0.823,3.051,1.352,5.385,0.797  c2.977-0.714,14.333-3.224,19.081-4.423c2.206-0.555,4.297-1.755,6.097-2.745c2.062,2.646,4.53,5.216,7.099,6.569  c0.777,0.409,6.055,4.528,7.29,4.893c1.456,0.42,1.571,0.338,1.404,1.259c-0.221,1.159-0.197,1.124-2.026,0.536l-20.268-8.118  c-1.989-0.687-4.016,0.425-4.511,2.471l-5.447,26.179c-1.04-0.033-2.057,0.176-2.994,0.592l-19.95-18.773  c-1.015-0.96-2.617-0.913-3.569,0.107c-0.144,0.149-0.251,0.311-0.349,0.48c-0.019,0.027-0.043,0.056-0.058,0.09l-3.274,6.33  c-2.959-0.975-6.223-1.103-9.438-0.161C0.668,53.587-4.162,62.411-1.698,70.828z M43.516,29.466  c-8.035,1.842-11.083,2.887-14.109,5.935l-0.132-8.573c1.208,1.267,2.826,2.443,4.238,2.443  C35.062,29.271,39.187,29.366,43.516,29.466z M61.721,67.464c-0.39,0.359-0.751,0.726-1.094,1.11l-5.977-3.533  c0.297-0.479,0.517-0.968,0.675-1.456c0.429-1.263,1.676-5.537,2.622-8.791L61.721,67.464z M60.392,79.135l11.503,2.884l0.004-0.023  c1.376,0.296,2.805-0.406,3.374-1.751c0.558-1.336,0.066-2.854-1.109-3.638l0.016-0.017l-10.251-6.069  c0.085-0.077,0.169-0.161,0.253-0.237c1.347-1.288,3.014-2.287,4.929-2.85c6.432-1.877,13.179,1.803,15.061,8.236  c1.892,6.434-1.799,13.182-8.234,15.062c-6.436,1.886-13.173-1.791-15.062-8.234C60.539,81.38,60.392,80.255,60.392,79.135z   M10.131,54.712c2.243-0.664,4.531-0.622,6.626-0.049l-5.494,10.624c-0.646,1.24-0.161,2.759,1.075,3.397  c0.378,0.202,0.77,0.287,1.159,0.287c0.917,0,1.803-0.494,2.239-1.364l5.507-10.634c1.828,1.497,3.242,3.535,3.962,5.973  c1.878,6.436-1.808,13.175-8.238,15.06c-6.438,1.888-13.19-1.798-15.068-8.231C0.012,63.346,3.694,56.6,10.131,54.712z"
     id="path4" /><path
     d="M52.657,20.049c-1.179-0.736-2.967-3.226-2.742-5.718c1.907,0.27,3.271,0.188,3.271,0.188l2.066-1.277  c-0.366-1.496-0.378-4.481-0.244-6.276c-1.031-0.462-1.989-0.886-1.989-0.886l0.886-2.142c0,0-6.296-0.685-6.884-3.484  c4.619,1.06,9.096-0.099,10.771-0.332C59.464-0.122,68.349-1.416,71.186,4.5c1.343,2.786-1.391,6.848-1.233,8.483L52.657,20.049z"
     id="path6" /></svg>