<?xml version="1.0" encoding="UTF-8" standalone="no"?>
<svg
   xmlns:dc="http://purl.org/dc/elements/1.1/"
   xmlns:cc="http://creativecommons.org/ns#"
   xmlns:rdf="http://www.w3.org/1999/02/22-rdf-syntax-ns#"
   xmlns:svg="http://www.w3.org/2000/svg"
   xmlns="http://www.w3.org/2000/svg"
   xmlns:sodipodi="http://sodipodi.sourceforge.net/DTD/sodipodi-0.dtd"
   xmlns:inkscape="http://www.inkscape.org/namespaces/inkscape"
   version="1.1"
   x="0px"
   y="0px"
   viewBox="0 0 100 125"
   enable-background="new 0 0 100 100"
   xml:space="preserve"
   id="svg2"
   inkscape:version="0.91 r13725"
   sodipodi:docname="campfire.svg"><metadata
     id="metadata18"><rdf:RDF><cc:Work
         rdf:about=""><dc:format>image/svg+xml</dc:format><dc:type
           rdf:resource="http://purl.org/dc/dcmitype/StillImage" /></cc:Work></rdf:RDF></metadata><defs
     id="defs16" /><sodipodi:namedview
     pagecolor="#ffffff"
     bordercolor="#666666"
     borderopacity="1"
     objecttolerance="10"
     gridtolerance="10"
     guidetolerance="10"
     inkscape:pageopacity="0"
     inkscape:pageshadow="2"
     inkscape:window-width="640"
     inkscape:window-height="480"
     id="namedview14"
     showgrid="false"
     inkscape:zoom="1.888"
     inkscape:cx="50"
     inkscape:cy="62.5"
     inkscape:window-x="75"
     inkscape:window-y="34"
     inkscape:window-maximized="0"
     inkscape:current-layer="svg2" /><g
     id="g4"><path
       d="M81.088,49.948c-0.227-0.324,0.542,7.211-5.739,9.77c-9.7,3.952-6.511-11.742-2.666-17.758   c5.847-9.149,1.192-20.006-8.578-24.194c0,0,3.256,8.84-1.861,11.632c-5.118,2.792-15.819-1.396-8.375-28.846   c0,0-12.935,5.427-16.284,13.958c-2.21,5.63-2.518,12.018,0,18.145c1.784,4.344-5.845,7.026-9.769-0.387   c-2.092-3.954-0.155-8.995-0.155-8.995c-1.472-0.076-8.222,6.699-4.965,15.718c3.257,9.018,5.583,15.531,5.583,15.531   s1.396,5.584-3.722,6.049c-5.118,0.466-7.006-6.239-6.979-10.235c0,0-7.57,25,19.261,29.071c-0.249-2.829-1.206-4.392-2.839-7.739   c-3.317-6.8-0.105-14.875,5.845-17.93c0,0-1.984,6.45,1.131,8.485c3.117,2.039,9.632-1.016,5.1-21.044c0,0,7.877,3.96,9.916,10.183   c1.347,4.108,1.534,8.77,0,13.238c-1.089,3.168,3.559,5.126,5.948-0.281c1.274-2.885,0.094-6.561,0.094-6.561   c0.896-0.06,5.31,5.216,4.884,12.076c-0.307,4.943-4.45,8.01-4.963,9.729c2.875-0.188,7.742-0.758,13.627-2.474   C85.431,74.22,87.679,59.331,81.088,49.948z"
       id="path6" /></g><path
     d="M88.229,90.784l-9.452-1.076l9.437-1.158c2.029-0.247,3.416-1.729,3.095-3.305l-0.242-1.189  c-0.32-1.576-2.226-2.652-4.258-2.404l-37.932,4.652L10.89,81.978c-2.034-0.232-3.924,0.861-4.222,2.441l-0.224,1.19  c-0.3,1.58,1.107,3.048,3.141,3.278l9.445,1.075l-9.428,1.156c-2.03,0.25-3.417,1.729-3.096,3.307l0.242,1.188  c0.322,1.578,2.227,2.653,4.258,2.404l37.924-4.651l37.992,4.326c2.033,0.23,3.925-0.861,4.224-2.441l0.224-1.189  C91.668,92.483,90.262,91.015,88.229,90.784z M10.659,97.084C9.249,97.257,7.88,96.281,7.6,94.902  c-0.28-1.38,0.632-2.64,2.042-2.811c1.407-0.175,2.775,0.806,3.056,2.186C12.981,95.653,12.066,96.911,10.659,97.084z   M90.282,94.548c-0.26,1.379-1.615,2.368-3.026,2.208c-1.41-0.159-2.342-1.408-2.082-2.792c0.262-1.381,1.617-2.37,3.025-2.21  C89.612,91.914,90.544,93.164,90.282,94.548z"
     id="path8" /></svg>