<?xml version="1.0" encoding="UTF-8" standalone="no"?>
<svg
   xmlns:dc="http://purl.org/dc/elements/1.1/"
   xmlns:cc="http://creativecommons.org/ns#"
   xmlns:rdf="http://www.w3.org/1999/02/22-rdf-syntax-ns#"
   xmlns:svg="http://www.w3.org/2000/svg"
   xmlns="http://www.w3.org/2000/svg"
   xmlns:sodipodi="http://sodipodi.sourceforge.net/DTD/sodipodi-0.dtd"
   xmlns:inkscape="http://www.inkscape.org/namespaces/inkscape"
   viewBox="0 0 308.09806 680.141225"
   version="1.1"
   x="0px"
   y="0px"
   id="svg10"
   sodipodi:docname="circus.svg"
   inkscape:version="0.92.3 (2405546, 2018-03-11)">
  <metadata
     id="metadata16">
    <rdf:RDF>
      <cc:Work
         rdf:about="">
        <dc:format>image/svg+xml</dc:format>
        <dc:type
           rdf:resource="http://purl.org/dc/dcmitype/StillImage" />
      </cc:Work>
    </rdf:RDF>
  </metadata>
  <defs
     id="defs14" />
  <sodipodi:namedview
     pagecolor="#ffffff"
     bordercolor="#666666"
     borderopacity="1"
     objecttolerance="10"
     gridtolerance="10"
     guidetolerance="10"
     inkscape:pageopacity="0"
     inkscape:pageshadow="2"
     inkscape:window-width="820"
     inkscape:window-height="480"
     id="namedview12"
     showgrid="false"
     inkscape:zoom="1.387947"
     inkscape:cx="80.293317"
     inkscape:cy="196.20558"
     inkscape:window-x="0"
     inkscape:window-y="27"
     inkscape:window-maximized="0"
     inkscape:current-layer="svg10" />
  <g
     transform="translate(-235.78002,-300.88169)"
     id="g4">
    <path
       style=""
       d="m 386.18805,300.88169 a 24.150837,24.150837 0 0 0 -24.11,24.111 24.150837,24.150837 0 0 0 24.11,24.192 24.150837,24.150837 0 0 0 24.11,-24.192 24.150837,24.150837 0 0 0 -24.11,-24.111 z m 85.52,85.52 a 24.150837,24.150837 0 0 0 -24.111,24.193 24.150837,24.150837 0 0 0 24.111,24.11 24.150837,24.150837 0 0 0 24.192,-24.11 24.150837,24.150837 0 0 0 -24.192,-24.193 z m -171.283,0.329 a 24.150837,24.150837 0 0 0 -24.191,24.111 24.150837,24.150837 0 0 0 24.191,24.191 24.150837,24.150837 0 0 0 24.111,-24.191 24.150837,24.150837 0 0 0 -24.111,-24.111 z m 87.381,35.114 a 43.537786,43.537786 0 0 0 -43.529,43.528 43.537786,43.537786 0 0 0 43.529,43.529 43.537786,43.537786 0 0 0 43.609,-43.529 43.537786,43.537786 0 0 0 -43.609,-43.528 z m -127.916,73.95 a 24.150837,24.150837 0 0 0 -24.11,24.111 24.150837,24.150837 0 0 0 24.11,24.191 24.150837,24.150837 0 0 0 24.191,-24.191 24.150837,24.150837 0 0 0 -24.191,-24.111 z m 259.878,0 a 24.150837,24.150837 0 0 0 -24.191,24.111 24.150837,24.150837 0 0 0 24.191,24.191 24.150837,24.150837 0 0 0 24.11,-24.191 24.150837,24.150837 0 0 0 -24.11,-24.111 z m -149.115,26.619 c -13.876,0 -25.356,9.412 -29.127,22.088 l -39.725,46.846 -33.739,-44.824 c -2.567,0.912 -5.356,1.375 -8.172,1.375 -9.487,0 -17.802,-4.806 -22.897,-12.055 -1.823,3.936 -1.567,8.69 1.29,12.46 l 53.158,70.471 c 2.278,3.023 5.737,4.85 9.465,5.016 3.771,0 7.426,-1.513 9.952,-4.369 l 29.371,-34.872 0,240.056 c 0,11.309 9.079,20.389 20.388,20.389 11.267,0 20.551,-9.039 20.551,-20.389 l 0,-136.492 13.35,0 0,136.492 c 0,11.309 9.08,20.389 20.388,20.389 11.31,0 20.471,-9.039 20.471,-20.389 l 0,-242.159 30.502,38.755 c 2.239,3.023 5.9,4.855 9.628,4.855 3.729,0 7.387,-1.673 9.791,-4.531 l 55.664,-68.448 c 3.77,-4.516 3.642,-11.064 0.183,-15.454 -4.889,6.214 -12.539,10.275 -21.28,10.275 -2.111,0 -4.122,-0.107 -6.068,-0.729 l -37.866,46.442 -43.123,-55.018 c -0.62,-0.788 -1.24,-1.082 -1.86,-1.539 -5.261,-8.741 -14.875,-14.644 -25.729,-14.644 l -34.548,0 z"
       fill="#000000"
       fill-opacity="1"
       id="path2" />
  </g>
</svg>
