<?xml version="1.0" encoding="UTF-8" standalone="no"?>
<svg
   xmlns:dc="http://purl.org/dc/elements/1.1/"
   xmlns:cc="http://creativecommons.org/ns#"
   xmlns:rdf="http://www.w3.org/1999/02/22-rdf-syntax-ns#"
   xmlns:svg="http://www.w3.org/2000/svg"
   xmlns="http://www.w3.org/2000/svg"
   xmlns:sodipodi="http://sodipodi.sourceforge.net/DTD/sodipodi-0.dtd"
   xmlns:inkscape="http://www.inkscape.org/namespaces/inkscape"
   version="1.1"
   x="0px"
   y="0px"
   viewBox="0 0 81.813 101.98124999999999"
   enable-background="new 0 0 81.813 81.585"
   xml:space="preserve"
   id="svg2"
   inkscape:version="0.91 r13725"
   sodipodi:docname="craft.svg"><metadata
     id="metadata18"><rdf:RDF><cc:Work
         rdf:about=""><dc:format>image/svg+xml</dc:format><dc:type
           rdf:resource="http://purl.org/dc/dcmitype/StillImage" /></cc:Work></rdf:RDF></metadata><defs
     id="defs16" /><sodipodi:namedview
     pagecolor="#ffffff"
     bordercolor="#666666"
     borderopacity="1"
     objecttolerance="10"
     gridtolerance="10"
     guidetolerance="10"
     inkscape:pageopacity="0"
     inkscape:pageshadow="2"
     inkscape:window-width="1653"
     inkscape:window-height="886"
     id="namedview14"
     showgrid="false"
     inkscape:zoom="2.314151"
     inkscape:cx="40.906502"
     inkscape:cy="50.990623"
     inkscape:window-x="75"
     inkscape:window-y="34"
     inkscape:window-maximized="0"
     inkscape:current-layer="svg2" /><g
     id="g4"><path
       d="M76.271,62.909c-0.46-0.919-1.065-1.761-1.793-2.487l-6.82-6.821l-0.837-0.836c-2.146-2.147-5.627-2.147-7.773,0   l-5.074,5.074l-3.372,14.358c0.261,0.374,0.543,0.734,0.871,1.063l2.015,2.014l3.231,3.231c0.916,0.916,2.271,1.25,3.507,0.867   c1.238-0.384,2.174-1.423,2.428-2.694l0.049-0.247c0.15-0.751,0.534-1.439,1.095-1.965l3.514-3.29l1.076-0.966   c1.08-0.969,1.979-2.127,2.651-3.412c0.308-0.584,0.945-0.924,1.602-0.852l0.759,0.085c0.42,0.047,0.814,0.236,1.113,0.536   c0.453,0.452,1.216,0.321,1.491-0.256l0.294-0.612C76.717,64.818,76.709,63.783,76.271,62.909z M67.473,65.911   c0.405-0.405,1.062-0.404,1.465,0c0.403,0.403,0.404,1.059,0,1.463c-0.403,0.403-1.06,0.403-1.464-0.001   C67.071,66.969,67.07,66.314,67.473,65.911z M64.698,68.687c0.404-0.405,1.06-0.404,1.464,0c0.403,0.403,0.404,1.059,0,1.463   s-1.06,0.402-1.464-0.001C64.294,69.746,64.293,69.09,64.698,68.687z M61.921,71.463c0.405-0.405,1.06-0.405,1.464,0   c0.403,0.403,0.404,1.059,0,1.463s-1.059,0.403-1.464-0.001C61.518,72.522,61.518,71.867,61.921,71.463z M66.707,63.492   c-0.185,0.251-0.355,0.513-0.509,0.781c-0.334,0.586-0.745,1.122-1.224,1.602c-0.084,0.083-0.17,0.167-0.259,0.248l-1.153,1.051   l-3.501,3.305l-0.214,0.208c-0.822,0.821-2.148,1.026-2.971,0.204l-1.138-1.138c-0.526-0.526-0.695-1.372-0.429-2.152   c0.651-1.917,1.774-3.706,3.247-5.178l3.52-3.52c0.857-0.857,2.25-0.857,3.108,0l1.478,1.478   C67.496,61.214,67.407,62.544,66.707,63.492z"
       id="path6" /><path
       d="M60.156,49.989L12.223,2.057L5.207,9.073l0.621,2.857l1.433,0.348l-0.167,1.667l1.629,0.396l-0.166,1.667l1.627,0.393   l-0.167,1.668l1.625,0.391l-0.169,1.664l1.627,0.393l-0.17,1.663l1.623,0.389l-0.168,1.663l1.627,0.392l-0.168,1.665l1.625,0.391   l-0.168,1.665l1.626,0.392l-0.168,1.663l1.625,0.39l-0.169,1.663l1.627,0.393l-0.17,1.665l1.625,0.389l-0.171,1.662l1.624,0.388   l-0.17,1.66L26.206,39l-0.167,1.664l1.624,0.392l-0.171,1.66l1.624,0.388l-0.173,1.659l1.622,0.386l-0.171,1.658l1.623,0.388   l-0.171,1.659l1.625,0.389l-0.169,1.662l1.623,0.392l-0.17,1.66l1.623,0.387l-0.171,1.662l1.625,0.389l-0.17,1.662l1.625,0.39   l-0.168,1.663l1.624,0.39l-0.17,1.662l1.623,0.39l-0.169,1.661l1.623,0.388l-0.171,1.662l1.624,0.389l-0.17,1.662l1.625,0.39   l-0.168,1.662l1.623,0.391l-0.12,1.182l0.995-0.262l3.542-12.958L60.156,49.989z M11.264,6.295l-0.512-0.512l1.946-1.946   l0.512,0.512L11.264,6.295z M14.079,9.111l-0.511-0.512l1.945-1.946l0.512,0.512L14.079,9.111z M16.896,11.927l-0.512-0.512   l1.945-1.946l0.512,0.512L16.896,11.927z M19.711,14.742l-0.512-0.512l1.945-1.945l0.512,0.512L19.711,14.742z M22.528,17.559   l-0.512-0.512l1.946-1.946l0.512,0.512L22.528,17.559z M57.751,48.89l0.512,0.512l-1.945,1.945l-0.513-0.512L57.751,48.89z    M54.935,46.074l0.513,0.513l-1.946,1.946l-0.512-0.514L54.935,46.074z M25.343,20.374l-0.512-0.512l1.946-1.946l0.512,0.512   L25.343,20.374z M28.159,23.19l-0.512-0.512l1.945-1.945l0.512,0.512L28.159,23.19z M30.975,26.006l-0.512-0.512l1.945-1.946   l0.512,0.512L30.975,26.006z M33.79,28.822l-0.512-0.512l1.947-1.946l0.512,0.512L33.79,28.822z M36.607,31.637l-0.512-0.512   l1.945-1.946l0.512,0.512L36.607,31.637z M39.423,34.453l-0.512-0.512l1.946-1.946l0.512,0.512L39.423,34.453z M42.238,37.269   l-0.512-0.512l1.946-1.946l0.513,0.512L42.238,37.269z M45.054,40.085l-0.512-0.513l1.945-1.945l0.512,0.512L45.054,40.085z    M47.87,42.9l-0.514-0.512l1.947-1.946l0.512,0.513L47.87,42.9z M50.173,45.205l1.945-1.946l0.514,0.513l-1.946,1.945   L50.173,45.205z"
       id="path8" /></g></svg>