<?xml version="1.0" encoding="UTF-8" standalone="no"?>
<svg
   xmlns:dc="http://purl.org/dc/elements/1.1/"
   xmlns:cc="http://creativecommons.org/ns#"
   xmlns:rdf="http://www.w3.org/1999/02/22-rdf-syntax-ns#"
   xmlns:svg="http://www.w3.org/2000/svg"
   xmlns="http://www.w3.org/2000/svg"
   xmlns:sodipodi="http://sodipodi.sourceforge.net/DTD/sodipodi-0.dtd"
   xmlns:inkscape="http://www.inkscape.org/namespaces/inkscape"
   version="1.1"
   x="0px"
   y="0px"
   viewBox="0 0 100 125"
   enable-background="new 0 0 100 100"
   xml:space="preserve"
   id="svg2"
   inkscape:version="0.91 r13725"
   sodipodi:docname="crystal.svg"><metadata
     id="metadata14"><rdf:RDF><cc:Work
         rdf:about=""><dc:format>image/svg+xml</dc:format><dc:type
           rdf:resource="http://purl.org/dc/dcmitype/StillImage" /></cc:Work></rdf:RDF></metadata><defs
     id="defs12" /><sodipodi:namedview
     pagecolor="#ffffff"
     bordercolor="#666666"
     borderopacity="1"
     objecttolerance="10"
     gridtolerance="10"
     guidetolerance="10"
     inkscape:pageopacity="0"
     inkscape:pageshadow="2"
     inkscape:window-width="640"
     inkscape:window-height="480"
     id="namedview10"
     showgrid="false"
     inkscape:zoom="1.888"
     inkscape:cx="50"
     inkscape:cy="62.5"
     inkscape:window-x="75"
     inkscape:window-y="34"
     inkscape:window-maximized="0"
     inkscape:current-layer="svg2" /><path
     d="M69.9,19.6L51.1,5.8L50,5l-1.1,0.8L30.1,19.6l-0.9,0.7l0.2,1.1l9.4,65.3l0.1,0.8l0.7,0.5l9.3,6.3L50,95l1.1-0.7l9.3-6.3  l0.7-0.5l0.1-0.8l9.4-65.3l0.2-1.1L69.9,19.6z M53.8,82.6h-7.6l-4.5-55.8h16.7L53.8,82.6z M53.1,84.5L50,90.6l-3.1-6.1H53.1z   M42.2,25L50,9.5L57.8,25H42.2z M47.4,10.5l-7.1,14.1L33.1,21L47.4,10.5z M39.7,26.5l4.6,56.5l-2.9,1.8l-8.9-62L39.7,26.5z   M44.9,84.9l2.5,5l-5.1-3.4L44.9,84.9z M52.5,89.9l2.5-5l2.5,1.6L52.5,89.9z M55.7,83.1l4.6-56.5l7.3-3.7l-8.9,62L55.7,83.1z   M59.8,24.6l-7.2-14.1L66.9,21L59.8,24.6z"
     id="path4" /></svg>