<?xml version="1.0" encoding="UTF-8" standalone="no"?>
<svg
   xmlns:dc="http://purl.org/dc/elements/1.1/"
   xmlns:cc="http://creativecommons.org/ns#"
   xmlns:rdf="http://www.w3.org/1999/02/22-rdf-syntax-ns#"
   xmlns:svg="http://www.w3.org/2000/svg"
   xmlns="http://www.w3.org/2000/svg"
   xmlns:sodipodi="http://sodipodi.sourceforge.net/DTD/sodipodi-0.dtd"
   xmlns:inkscape="http://www.inkscape.org/namespaces/inkscape"
   version="1.1"
   x="0px"
   y="0px"
   viewBox="0 0 100 125"
   style="enable-background:new 0 0 100 100;"
   xml:space="preserve"
   id="svg10"
   sodipodi:docname="escape_room.svg"
   inkscape:version="0.92.4 (5da689c313, 2019-01-14)"><metadata
     id="metadata16"><rdf:RDF><cc:Work
         rdf:about=""><dc:format>image/svg+xml</dc:format><dc:type
           rdf:resource="http://purl.org/dc/dcmitype/StillImage" /></cc:Work></rdf:RDF></metadata><defs
     id="defs14" /><sodipodi:namedview
     pagecolor="#ffffff"
     bordercolor="#666666"
     borderopacity="1"
     objecttolerance="10"
     gridtolerance="10"
     guidetolerance="10"
     inkscape:pageopacity="0"
     inkscape:pageshadow="2"
     inkscape:window-width="838"
     inkscape:window-height="480"
     id="namedview12"
     showgrid="false"
     inkscape:zoom="1.888"
     inkscape:cx="50"
     inkscape:cy="62.5"
     inkscape:window-x="0"
     inkscape:window-y="27"
     inkscape:window-maximized="0"
     inkscape:current-layer="svg10" /><path
     d="M92.5,90h-20v-5H80c1.4,0,2.5-1.1,2.5-2.5v-15c0-1.4-1.1-2.5-2.5-2.5h-2.5v-2.5c0-3.3-2.1-6-5-7.1V44.8  C82.3,43.6,90,35.2,90,25c0-11-9-20-20-20c-10.2,0-18.6,7.7-19.8,17.5H30c-1.4,0-2.5,1.1-2.5,2.5l0,10.4c-2.9,1-5,3.8-5,7.1  s2.1,6,5,7.1v3.4c-2.9,1-5,3.8-5,7.1c0,3.3,2.1,6,5,7.1l0,3.4c-2.9,1-5,3.8-5,7.1c0,3.3,2.1,6,5,7.1l0,5.4h-20C6.1,90,5,91.1,5,92.5  S6.1,95,7.5,95H30h40h22.5c1.4,0,2.5-1.1,2.5-2.5S93.9,90,92.5,90z M70,10c8.3,0,15,6.7,15,15s-6.7,15-15,15s-15-6.7-15-15  S61.7,10,70,10z M72.5,62.5V65h-5v-2.5c0-1.4,1.1-2.5,2.5-2.5S72.5,61.1,72.5,62.5z M27.5,42.5c0-1.4,1.1-2.5,2.5-2.5  s2.5,1.1,2.5,2.5S31.4,45,30,45S27.5,43.9,27.5,42.5z M27.5,60c0-1.4,1.1-2.5,2.5-2.5s2.5,1.1,2.5,2.5s-1.1,2.5-2.5,2.5  S27.5,61.4,27.5,60z M30,80c-1.4,0-2.5-1.1-2.5-2.5S28.6,75,30,75s2.5,1.1,2.5,2.5S31.4,80,30,80z M67.5,90h-35l0-5.4  c2.1-0.8,3.8-2.4,4.6-4.6H45v2.5c0,1.4,1.1,2.5,2.5,2.5s2.5-1.1,2.5-2.5V80c1.4,0,2.5-1.1,2.5-2.5S51.4,75,50,75H37.1  c-0.8-2.1-2.4-3.8-4.6-4.6v-3.4c2.1-0.8,3.8-2.4,4.6-4.6H45V65c0,1.4,1.1,2.5,2.5,2.5S50,66.4,50,65v-2.5c1.4,0,2.5-1.1,2.5-2.5  s-1.1-2.5-2.5-2.5H37.1c-0.8-2.1-2.4-3.8-4.6-4.6v-3.4c2.1-0.8,3.8-2.4,4.6-4.6H45v2.5c0,1.4,1.1,2.5,2.5,2.5s2.5-1.1,2.5-2.5V45  c1.4,0,2.5-1.1,2.5-2.5S51.4,40,50,40H37.1c-0.8-2.1-2.4-3.8-4.6-4.6l0-7.9h17.7c1.1,9,8.3,16.2,17.3,17.3v10.6c-2.9,1-5,3.8-5,7.1  V65H60c-1.4,0-2.5,1.1-2.5,2.5v15c0,1.4,1.1,2.5,2.5,2.5h7.5V90z M62.5,80V70h15v10H62.5z"
     id="path2" /><path
     d="M70,27.5h5c1.4,0,2.5-1.1,2.5-2.5s-1.1-2.5-2.5-2.5h-2.5v-5c0-1.4-1.1-2.5-2.5-2.5s-2.5,1.1-2.5,2.5V25  C67.5,26.4,68.6,27.5,70,27.5z"
     id="path4" /></svg>