<?xml version="1.0" encoding="UTF-8" standalone="no"?>
<svg
   xmlns:dc="http://purl.org/dc/elements/1.1/"
   xmlns:cc="http://creativecommons.org/ns#"
   xmlns:rdf="http://www.w3.org/1999/02/22-rdf-syntax-ns#"
   xmlns:svg="http://www.w3.org/2000/svg"
   xmlns="http://www.w3.org/2000/svg"
   xmlns:sodipodi="http://sodipodi.sourceforge.net/DTD/sodipodi-0.dtd"
   xmlns:inkscape="http://www.inkscape.org/namespaces/inkscape"
   version="1.1"
   x="0px"
   y="0px"
   viewBox="0 0 40 50"
   enable-background="new 0 0 40 40"
   xml:space="preserve"
   id="svg2"
   inkscape:version="0.91 r13725"
   sodipodi:docname="firstaid.svg"><metadata
     id="metadata36"><rdf:RDF><cc:Work
         rdf:about=""><dc:format>image/svg+xml</dc:format><dc:type
           rdf:resource="http://purl.org/dc/dcmitype/StillImage" /></cc:Work></rdf:RDF></metadata><defs
     id="defs34" /><sodipodi:namedview
     pagecolor="#ffffff"
     bordercolor="#666666"
     borderopacity="1"
     objecttolerance="10"
     gridtolerance="10"
     guidetolerance="10"
     inkscape:pageopacity="0"
     inkscape:pageshadow="2"
     inkscape:window-width="1636"
     inkscape:window-height="961"
     id="namedview32"
     showgrid="false"
     inkscape:zoom="4.72"
     inkscape:cx="20"
     inkscape:cy="25"
     inkscape:window-x="75"
     inkscape:window-y="34"
     inkscape:window-maximized="0"
     inkscape:current-layer="svg2" /><g
     id="g10"><path
       d="M20,0C8.972,0,0,8.972,0,20c0,11.028,8.972,20,20,20s20-8.972,20-20C40,8.972,31.028,0,20,0z M20,38.149   C9.993,38.149,1.852,30.008,1.852,20C1.852,9.992,9.993,1.851,20,1.851S38.148,9.992,38.148,20   C38.148,30.008,30.007,38.149,20,38.149z"
       id="path12" /><path
       d="M20,3.973C11.149,3.973,3.973,11.148,3.973,20c0,8.852,7.176,16.026,16.027,16.026S36.026,28.852,36.026,20   C36.026,11.148,28.851,3.973,20,3.973z M30.082,24.613h-5.469v5.469h-9.226v-5.469H9.918v-9.226h5.469V9.918h9.226v5.469h5.469   V24.613z"
       id="path14" /></g></svg>