<?xml version="1.0" encoding="UTF-8" standalone="no"?>
<svg
   xmlns:dc="http://purl.org/dc/elements/1.1/"
   xmlns:cc="http://creativecommons.org/ns#"
   xmlns:rdf="http://www.w3.org/1999/02/22-rdf-syntax-ns#"
   xmlns:svg="http://www.w3.org/2000/svg"
   xmlns="http://www.w3.org/2000/svg"
   xmlns:sodipodi="http://sodipodi.sourceforge.net/DTD/sodipodi-0.dtd"
   xmlns:inkscape="http://www.inkscape.org/namespaces/inkscape"
   version="1.1"
   x="0px"
   y="0px"
   viewBox="0 0 61.192 119.11"
   enable-background="new 0 0 61.192 95.288"
   xml:space="preserve"
   id="svg2"
   inkscape:version="0.91 r13725"
   sodipodi:docname="flag.svg"><metadata
     id="metadata18"><rdf:RDF><cc:Work
         rdf:about=""><dc:format>image/svg+xml</dc:format><dc:type
           rdf:resource="http://purl.org/dc/dcmitype/StillImage" /></cc:Work></rdf:RDF></metadata><defs
     id="defs16" /><sodipodi:namedview
     pagecolor="#ffffff"
     bordercolor="#666666"
     borderopacity="1"
     objecttolerance="10"
     gridtolerance="10"
     guidetolerance="10"
     inkscape:pageopacity="0"
     inkscape:pageshadow="2"
     inkscape:window-width="640"
     inkscape:window-height="480"
     id="namedview14"
     showgrid="false"
     inkscape:zoom="1.9813618"
     inkscape:cx="30.596001"
     inkscape:cy="59.555"
     inkscape:window-x="75"
     inkscape:window-y="34"
     inkscape:window-maximized="0"
     inkscape:current-layer="svg2" /><g
     id="g4"><path
       fill="#000000"
       d="M61.192,9.271c-6.02-0.202-12.038,3.953-18.058,9.56c6.02,2.691,12.038,6.835,18.058,15.335   C43.128,21.173,25.064,47.412,7,34.419c0-8.383,0-16.765,0-25.148C25.064,22.348,43.128-3.806,61.192,9.271z"
       id="path6" /></g><path
     fill-rule="evenodd"
     clip-rule="evenodd"
     d="M3.139,0c0.078,0,0.155,0,0.233,0C5.032,0.195,6.11,1.166,6.426,2.717  c0.33,1.62-0.427,2.952-1.337,3.615C4.969,6.421,4.726,6.503,4.687,6.633c-0.085,0.283,0,0.936,0,1.39c0,29.003,0,58.296,0,87.222  c0.004,0.024-0.004,0.038-0.021,0.043c-0.933,0-1.866,0-2.799,0c-0.046,0.003-0.068-0.018-0.063-0.065c0-29.549,0-59.082,0-88.634  C0.84,5.991,0.139,5.13,0,3.702C0,3.544,0,3.388,0,3.23C0.253,1.354,1.244,0.221,3.139,0z"
     id="path8" /></svg>