<?xml version="1.0" encoding="UTF-8" standalone="no"?>
<svg
   xmlns:dc="http://purl.org/dc/elements/1.1/"
   xmlns:cc="http://creativecommons.org/ns#"
   xmlns:rdf="http://www.w3.org/1999/02/22-rdf-syntax-ns#"
   xmlns:svg="http://www.w3.org/2000/svg"
   xmlns="http://www.w3.org/2000/svg"
   xmlns:sodipodi="http://sodipodi.sourceforge.net/DTD/sodipodi-0.dtd"
   xmlns:inkscape="http://www.inkscape.org/namespaces/inkscape"
   version="1.1"
   x="0px"
   y="0px"
   viewBox="0 0 100 125"
   enable-background="new 0 0 100 100"
   xml:space="preserve"
   id="svg2"
   inkscape:version="0.91 r13725"
   sodipodi:docname="gents.svg"><metadata
     id="metadata16"><rdf:RDF><cc:Work
         rdf:about=""><dc:format>image/svg+xml</dc:format><dc:type
           rdf:resource="http://purl.org/dc/dcmitype/StillImage" /></cc:Work></rdf:RDF></metadata><defs
     id="defs14" /><sodipodi:namedview
     pagecolor="#ffffff"
     bordercolor="#666666"
     borderopacity="1"
     objecttolerance="10"
     gridtolerance="10"
     guidetolerance="10"
     inkscape:pageopacity="0"
     inkscape:pageshadow="2"
     inkscape:window-width="640"
     inkscape:window-height="480"
     id="namedview12"
     showgrid="false"
     inkscape:zoom="1.888"
     inkscape:cx="50"
     inkscape:cy="62.5"
     inkscape:window-x="75"
     inkscape:window-y="34"
     inkscape:window-maximized="0"
     inkscape:current-layer="svg2" /><path
     fill-rule="evenodd"
     clip-rule="evenodd"
     d="M57.726,25.246h-7.725h-7.725c-4.595,0-8.319,3.725-8.319,8.319v21.391  c0,1.641,1.33,2.971,2.972,2.971c1.641,0,2.971-1.33,2.971-2.971V35.348h1.188v51.695h0.013c-0.008,0.099-0.013,0.197-0.013,0.297  c0,2.133,1.729,3.862,3.861,3.862c2.134,0,3.863-1.729,3.863-3.862c0-0.1-0.005-0.199-0.013-0.297h0.013v-29.71h1.188h1.188v29.71  h0.013c-0.008,0.099-0.013,0.197-0.013,0.297c0,2.133,1.729,3.862,3.861,3.862c2.134,0,3.863-1.729,3.863-3.862  c0-0.1-0.006-0.199-0.013-0.297h0.013V35.348h1.188v19.608c0,1.641,1.33,2.971,2.971,2.971s2.971-1.33,2.971-2.971V33.565  C66.044,28.971,62.319,25.246,57.726,25.246z"
     id="path4" /><circle
     fill-rule="evenodd"
     clip-rule="evenodd"
     cx="50.001"
     cy="16.927"
     r="7.13"
     id="circle6" /></svg>