<?xml version="1.0" encoding="UTF-8" standalone="no"?>
<svg
   xmlns:dc="http://purl.org/dc/elements/1.1/"
   xmlns:cc="http://creativecommons.org/ns#"
   xmlns:rdf="http://www.w3.org/1999/02/22-rdf-syntax-ns#"
   xmlns:svg="http://www.w3.org/2000/svg"
   xmlns="http://www.w3.org/2000/svg"
   xmlns:sodipodi="http://sodipodi.sourceforge.net/DTD/sodipodi-0.dtd"
   xmlns:inkscape="http://www.inkscape.org/namespaces/inkscape"
   xml:space="preserve"
   style="shape-rendering:geometricPrecision;text-rendering:geometricPrecision;image-rendering:optimizeQuality;"
   viewBox="0 0 100 125"
   x="0px"
   y="0px"
   fill-rule="evenodd"
   clip-rule="evenodd"
   id="svg2"
   version="1.1"
   inkscape:version="0.91 r13725"
   sodipodi:docname="geocaching.svg"><metadata
     id="metadata22"><rdf:RDF><cc:Work
         rdf:about=""><dc:format>image/svg+xml</dc:format><dc:type
           rdf:resource="http://purl.org/dc/dcmitype/StillImage" /></cc:Work></rdf:RDF></metadata><sodipodi:namedview
     pagecolor="#ffffff"
     bordercolor="#666666"
     borderopacity="1"
     objecttolerance="10"
     gridtolerance="10"
     guidetolerance="10"
     inkscape:pageopacity="0"
     inkscape:pageshadow="2"
     inkscape:window-width="891"
     inkscape:window-height="480"
     id="namedview20"
     showgrid="false"
     inkscape:zoom="1.888"
     inkscape:cx="50"
     inkscape:cy="62.5"
     inkscape:window-x="65"
     inkscape:window-y="24"
     inkscape:window-maximized="0"
     inkscape:current-layer="svg2" /><defs
     id="defs4"><style
       type="text/css"
       id="style6">
   
    .fil0 {fill:black}
   
  </style></defs><g
     id="g8"><path
       class="fil0"
       d="M33.1243 4.99965l33.7503 0c7.59455,0 13.8072,6.21383 13.8072,13.8072l0 62.3875c0,7.59337 -6.21265,13.806 -13.8072,13.806l-33.7503 0c-7.59455,0 -13.8072,-6.21265 -13.8072,-13.806l0 -62.3875c0,-7.59337 6.21265,-13.8072 13.8072,-13.8072zm3.79491 6.40871l26.1604 0c5.88548,0 10.7009,4.51775 10.7009,10.0394l0 45.3665c0,5.5217 -4.81539,10.0394 -10.7009,10.0394l-26.1604 0c-5.88548,0 -10.7021,-4.51775 -10.7021,-10.0394l0 -45.3665c0,-5.5217 4.81657,-10.0394 10.7021,-10.0394zm13.0796 69.8746c3.03546,0 5.49689,2.46144 5.49689,5.49689 0,3.03546 -2.46144,5.49571 -5.49689,5.49571 -3.03428,0 -5.49571,-2.46026 -5.49571,-5.49571 0,-3.03546 2.46144,-5.49689 5.49571,-5.49689z"
       id="path10" /><path
       class="fil0"
       d="M49.9988 23.0399c11.6469,0 21.0911,9.44417 21.0911,21.0911 0,11.6458 -9.44417,21.0911 -21.0911,21.0911 -11.6458,0 -21.0899,-9.44535 -21.0899,-21.0911 0,-11.6469 9.44417,-21.0911 21.0899,-21.0911zm0 3.4453c9.74417,0 17.647,7.90164 17.647,17.6458 0,9.74417 -7.90282,17.6458 -17.647,17.6458 -9.74299,0 -17.6458,-7.90164 -17.6458,-17.6458 0,-9.74417 7.90282,-17.6458 17.6458,-17.6458z"
       id="path12" /><polygon
       class="fil0"
       points="42.4917,30.9026 48.3842,36.3015 54.2803,41.7015 55.8937,49.5299 57.5071,57.3595 51.6146,51.9595 45.7197,46.5606 44.1063,38.7322 "
       id="polygon14" /></g></svg>