<?xml version="1.0" encoding="UTF-8" standalone="no"?>
<svg
   xmlns:dc="http://purl.org/dc/elements/1.1/"
   xmlns:cc="http://creativecommons.org/ns#"
   xmlns:rdf="http://www.w3.org/1999/02/22-rdf-syntax-ns#"
   xmlns:svg="http://www.w3.org/2000/svg"
   xmlns="http://www.w3.org/2000/svg"
   xmlns:sodipodi="http://sodipodi.sourceforge.net/DTD/sodipodi-0.dtd"
   xmlns:inkscape="http://www.inkscape.org/namespaces/inkscape"
   version="1.1"
   x="0px"
   y="0px"
   viewBox="0 0 100 125"
   enable-background="new 0 0 100 100"
   xml:space="preserve"
   id="svg2"
   inkscape:version="0.91 r13725"
   sodipodi:docname="match.svg"><metadata
     id="metadata18"><rdf:RDF><cc:Work
         rdf:about=""><dc:format>image/svg+xml</dc:format><dc:type
           rdf:resource="http://purl.org/dc/dcmitype/StillImage" /></cc:Work></rdf:RDF></metadata><defs
     id="defs16" /><sodipodi:namedview
     pagecolor="#ffffff"
     bordercolor="#666666"
     borderopacity="1"
     objecttolerance="10"
     gridtolerance="10"
     guidetolerance="10"
     inkscape:pageopacity="0"
     inkscape:pageshadow="2"
     inkscape:window-width="640"
     inkscape:window-height="480"
     id="namedview14"
     showgrid="false"
     inkscape:zoom="1.888"
     inkscape:cx="50"
     inkscape:cy="62.5"
     inkscape:window-x="75"
     inkscape:window-y="34"
     inkscape:window-maximized="0"
     inkscape:current-layer="svg2" /><path
     fill="#000000"
     d="M58.686,72.165c-1.367-2.135-2.034-1-3.469-3.135c-1.434-2.134-3.901-7.704-5.169-8.371  c0,0,2.368,0.867,3.802,2.301c0,0-7.048-7.404-3.635-21.644c0,0,0.878,7.904,4.413,10.038c0,0-2.468-7.537-2.09-10.449  c0,0,0.636,1.42,1.903,2.42c0,0-2.593-8.413-2.659-11.214c-0.067-2.801-0.233-5.103-0.268-5.87l2.936,5.47  c0,0,1.5-6.003,1.467-8.404c-0.033-2.401,0.667-11.339-0.867-13.974c0,0,3.436,6.37,7.204,10.238s8.337,6.703,9.038,17.976  l0.7-13.606c0,0,1.734,10.183,3.424,14.073c1.689,3.891,2.423,5.981,2.423,5.981s-0.289-6.514,0.623-8.493c0,0,0,1.979,1.334,4.347  c1.334,2.368,3.985,10.722,0.75,19.826l3.436-5.519c0,0-0.473,1.734-1.051,5.647c-0.578,3.913-3.246,13.207-12.807,17.342  c0,0,4.514-5.18,6.292-9.516c0,0-4.469,3.046-5.603,4.402c0,0,1.134-2.09,2.046-4.891c0.882-2.711,0.744-3.069,1.057-3.653  c0.01-0.02,0.021-0.04,0.032-0.06c0.355-0.623-3.69,4.891-4.691,5.292c0,0,0.602-1.979,1.49-4.713s-0.578-3.135-0.601-5.692  c0,0-1.111,6.292-2.668,7.648c0,0-1.156-3.824-1.156-5.225c0-1.401-0.133-3.847-0.533-5.092c-0.4-1.245-0.667-2.29-0.667-2.29  s-1.223,4.647-0.778,7.315s-1.156,7.048-0.756,7.981l-2.335-6.581l-0.467,6.87l-3.69-7.203L58.686,72.165z"
     id="path4" /><path
     fill="#000000"
     d="M53.306,76.446c1.689-0.82,2.86-2.444,3.121-4.29c-0.044-0.037-0.081-0.079-0.128-0.113L11.74,40.028  c-0.954-0.685-2.294-0.465-2.979,0.488l-0.623,0.867c-0.685,0.953-0.465,2.294,0.488,2.979l44.559,32.015  C53.224,76.404,53.266,76.421,53.306,76.446z"
     id="path6" /><path
     fill="#000000"
     d="M67.841,78.285c0.037-0.042,0.074-0.091,0.106-0.133c0.812-1.035,0.833-2.049,0.833-2.156  c-0.155,0.534-0.727,1.137-1.063,1.457c-0.149,0.138-0.251,0.224-0.251,0.224c0.069-0.112,0.128-0.245,0.182-0.389  c0.384-1.078,0.294-2.829,0.294-2.829c-0.112,0.843-0.454,1.5-0.77,1.948c-0.324,0.469-0.629,0.715-0.629,0.715l0.139-1.361  l0.24-2.353c-0.091,0.486-0.534,1.211-0.875,1.724c-0.245,0.357-0.438,0.613-0.438,0.613l-0.038-0.971l-0.139-3.853l-0.624,3.415  l-0.133,0.742l-0.251-0.907l-0.48-1.739c-0.059,0.624-0.149,1.121-0.256,1.5c-0.229,0.848-0.502,1.147-0.502,1.147l-0.24-1.275  l-0.384-2.038c-0.086,0.774-0.225,1.441-0.39,2.001c-0.502,1.739-1.211,2.513-1.211,2.513c0.053-0.859-0.091-1.67-0.262-2.294  c-0.09-0.328-0.185-0.599-0.263-0.803c-0.503,2.505-1.923,4.751-3.955,6.283c-0.001,0.043-0.009,0.085-0.009,0.128  c0,3.218,2.604,5.822,5.822,5.822c2.753,0,4.481-2.123,5.672-4.477c0.722-1.427,0.704-2.71,0.704-2.71  c-0.133,0.533-0.353,0.859-0.555,1.056C67.856,79.549,66.875,79.427,67.841,78.285z"
     id="path8" /></svg>