<?xml version="1.0" encoding="UTF-8" standalone="no"?>
<svg
   xmlns:dc="http://purl.org/dc/elements/1.1/"
   xmlns:cc="http://creativecommons.org/ns#"
   xmlns:rdf="http://www.w3.org/1999/02/22-rdf-syntax-ns#"
   xmlns:svg="http://www.w3.org/2000/svg"
   xmlns="http://www.w3.org/2000/svg"
   xmlns:sodipodi="http://sodipodi.sourceforge.net/DTD/sodipodi-0.dtd"
   xmlns:inkscape="http://www.inkscape.org/namespaces/inkscape"
   version="1.1"
   x="0px"
   y="0px"
   viewBox="0 0 100 125"
   enable-background="new 0 0 100 100"
   xml:space="preserve"
   id="svg2"
   inkscape:version="0.91 r13725"
   sodipodi:docname="painting.svg"><metadata
     id="metadata22"><rdf:RDF><cc:Work
         rdf:about=""><dc:format>image/svg+xml</dc:format><dc:type
           rdf:resource="http://purl.org/dc/dcmitype/StillImage" /></cc:Work></rdf:RDF></metadata><defs
     id="defs20" /><sodipodi:namedview
     pagecolor="#ffffff"
     bordercolor="#666666"
     borderopacity="1"
     objecttolerance="10"
     gridtolerance="10"
     guidetolerance="10"
     inkscape:pageopacity="0"
     inkscape:pageshadow="2"
     inkscape:window-width="640"
     inkscape:window-height="480"
     id="namedview18"
     showgrid="false"
     inkscape:zoom="1.888"
     inkscape:cx="50"
     inkscape:cy="62.5"
     inkscape:window-x="75"
     inkscape:window-y="34"
     inkscape:window-maximized="0"
     inkscape:current-layer="svg2" /><path
     d="M22.556,80.517c-0.045-2.547-8.834-4.938-12.042-1.233c-3.211,3.703-2.018,9.144-8.169,11.443  C2.345,90.727,22.799,93.629,22.556,80.517z"
     id="path4" /><polygon
     points="87.774,71.565 97,38.079 87.438,42.495 81.823,62.874 "
     id="polygon6" /><path
     d="M55.461,6.274c1.879,0.681,2.935,2.028,2.356,3.004L23.426,74.553c-0.447,1.013-1.629,1.472-2.641,1.023l0,0  c-1.013-0.447-1.471-1.628-1.025-2.642L51.011,6.806C51.588,5.83,53.58,5.591,55.461,6.274L55.461,6.274z"
     id="path8" /><path
     d="M73.629,39.381c-2.624-1.154-13.166-6.827-16.299-8.64c-2.489-1.443-4.004-1.842-5.291-1.683L41.098,49.825  c1.002-0.234,6.605-2.971,6.605-2.971l5.628,4.055c0,0,0.666-0.851-0.197,2.284c-0.863,3.133-6.648,4.046-8.257,4.554  c-1.61,0.509-6.027,0.847-7.776,1.23s-4.889,2.372-5.599,4.944c-0.929,3.375,3.679,2.655,6.244,2.756  c2.568,0.103,5.408,1.403,8.348,1.091c2.94-0.313,12.312-2.316,12.312-2.316c4.769,1.834,8.448,1.031,12.48-0.107  c4.031-1.136,4.144-2.489,8.708-3.047l5.623-20.413C81.013,41.763,76.248,40.537,73.629,39.381z"
     id="path10" /><path
     d="M31.506,33.304c-3.753,0.437-4.553,1.772-4.936,2.532c-0.381,0.759-2.797,4.503-3.502,6.125  c-0.706,1.621-1.49,4.779-1.29,6.562c0.2,1.784,0.601,5.353,0.601,5.353s-2.753,4.344-2.931,4.987  c-0.176,0.642-1.043,2.22,0.767,3.497c1.81,1.275,3.971-0.29,5.569-2.012c0.171-0.184,0.321-0.37,0.464-0.559l12.886-27.267  C37.447,32.733,34.391,32.967,31.506,33.304z"
     id="path12" /></svg>