<?xml version="1.0" encoding="UTF-8" standalone="no"?>
<svg
   xmlns:dc="http://purl.org/dc/elements/1.1/"
   xmlns:cc="http://creativecommons.org/ns#"
   xmlns:rdf="http://www.w3.org/1999/02/22-rdf-syntax-ns#"
   xmlns:svg="http://www.w3.org/2000/svg"
   xmlns="http://www.w3.org/2000/svg"
   xmlns:sodipodi="http://sodipodi.sourceforge.net/DTD/sodipodi-0.dtd"
   xmlns:inkscape="http://www.inkscape.org/namespaces/inkscape"
   version="1.1"
   x="0px"
   y="0px"
   viewBox="0 0 100 125"
   enable-background="new 0 0 100 100"
   xml:space="preserve"
   id="svg2"
   inkscape:version="0.91 r13725"
   sodipodi:docname="podium.svg"><metadata
     id="metadata28"><rdf:RDF><cc:Work
         rdf:about=""><dc:format>image/svg+xml</dc:format><dc:type
           rdf:resource="http://purl.org/dc/dcmitype/StillImage" /></cc:Work></rdf:RDF></metadata><defs
     id="defs26" /><sodipodi:namedview
     pagecolor="#ffffff"
     bordercolor="#666666"
     borderopacity="1"
     objecttolerance="10"
     gridtolerance="10"
     guidetolerance="10"
     inkscape:pageopacity="0"
     inkscape:pageshadow="2"
     inkscape:window-width="640"
     inkscape:window-height="480"
     id="namedview24"
     showgrid="false"
     inkscape:zoom="1.888"
     inkscape:cx="50"
     inkscape:cy="62.5"
     inkscape:window-x="75"
     inkscape:window-y="34"
     inkscape:window-maximized="0"
     inkscape:current-layer="svg2" /><g
     id="g4"><circle
       fill="#000000"
       cx="50.197"
       cy="8.139"
       r="6.247"
       id="circle6" /><path
       fill="#000000"
       d="M43.46,24.029l-1.092,15.648h2.038v0.202l-2.078,22.261c-0.147,1.566,1.004,2.955,2.57,3.1   c0.089,0.008,0.18,0.012,0.268,0.012c1.452,0,2.692-1.105,2.831-2.58l2.012-21.552h0.378l2.01,21.552   c0.14,1.475,1.38,2.58,2.832,2.58c0.089,0,0.178-0.004,0.269-0.012c1.564-0.145,2.715-1.533,2.569-3.1l-2.079-22.262v-0.202h2.037   l-1.087-15.82l10.187-11.794c1.022-1.196,0.881-2.993-0.313-4.015c-0.538-0.458-1.193-0.682-1.85-0.682   c-0.803,0-1.601,0.338-2.166,0.997l-8.088,8.811c0-3.049-1.1-0.885-4.362-0.885h-0.295c-3.263,0-4.363-2.165-4.363,0.885   l-8.088-8.643c-0.564-0.659-1.363-0.997-2.166-0.997c-0.655,0-1.311,0.224-1.849,0.683c-1.195,1.021-1.336,2.818-0.313,4.014   L43.46,24.029z"
       id="path8" /><path
       fill="#000000"
       d="M13.934,53.289h2.039v0.201l-2.079,22.262c-0.146,1.566,1.004,2.955,2.57,3.102   c0.089,0.006,0.179,0.012,0.268,0.012c1.453,0,2.693-1.107,2.831-2.584l2.013-21.551h0.377l2.012,21.551   c0.139,1.477,1.38,2.584,2.831,2.584c0.089,0,0.178-0.006,0.269-0.012c1.565-0.146,2.715-1.535,2.57-3.102L27.555,53.49v-0.201   h2.036l-0.846-11.496l4.922,5.758c0.564,0.659,1.363,0.997,2.166,0.997c0.654,0,1.311-0.224,1.848-0.683   c1.196-1.022,1.338-2.819,0.314-4.014l-9.956-11.648l-1.764-1.419c0-3.049-1.1-0.884-4.363-0.884h-0.296   c-3.263,0-4.363-2.165-4.363,0.884l-1.766,1.429L5.684,43.848c-1.023,1.196-0.882,2.994,0.314,4.014   c0.537,0.458,1.194,0.684,1.849,0.684c0.803,0,1.602-0.338,2.166-0.998l4.769-5.744L13.934,53.289z"
       id="path10" /><circle
       fill="#000000"
       cx="21.839"
       cy="21.75"
       r="6.247"
       id="circle12" /><path
       fill="#000000"
       d="M94.315,43.852L84.36,32.204l-1.764-1.419c0-3.049-1.101-0.884-4.364-0.884h-0.295   c-3.264,0-4.363-2.165-4.363,0.884l-1.765,1.429l-9.805,11.633c-1.022,1.196-0.881,2.994,0.313,4.014   c0.538,0.458,1.194,0.684,1.85,0.684c0.804,0,1.602-0.338,2.166-0.998l4.768-5.744l-0.846,11.485h2.037v0.201l-2.079,22.262   c-0.146,1.566,1.006,2.955,2.571,3.102c0.09,0.006,0.179,0.012,0.268,0.012c1.452,0,2.693-1.107,2.831-2.584l2.013-21.551h0.377   l2.012,21.551c0.139,1.477,1.38,2.584,2.831,2.584c0.089,0,0.179-0.006,0.27-0.012c1.564-0.146,2.714-1.535,2.57-3.102   l-2.08-22.262v-0.201h2.037l-0.847-11.496l4.922,5.758c0.564,0.659,1.362,0.997,2.165,0.997c0.655,0,1.312-0.224,1.849-0.683   C95.197,46.844,95.34,45.047,94.315,43.852z"
       id="path14" /><circle
       fill="#000000"
       cx="78.16"
       cy="21.75"
       r="6.247"
       id="circle16" /><path
       fill="#000000"
       d="M86.665,80.271H61.124V69.477c0-1.555-1.261-2.816-2.816-2.816H41.692c-1.556,0-2.816,1.262-2.816,2.816   v10.795H13.729c-1.555,0-2.816,1.262-2.816,2.816v12.203c0,1.557,1.261,2.816,2.816,2.816h72.937c1.556,0,2.816-1.26,2.816-2.816   V83.088C89.481,81.533,88.221,80.271,86.665,80.271z"
       id="path18" /></g></svg>