<?xml version="1.0" encoding="UTF-8" standalone="no"?>
<svg
   xmlns:dc="http://purl.org/dc/elements/1.1/"
   xmlns:cc="http://creativecommons.org/ns#"
   xmlns:rdf="http://www.w3.org/1999/02/22-rdf-syntax-ns#"
   xmlns:svg="http://www.w3.org/2000/svg"
   xmlns="http://www.w3.org/2000/svg"
   xmlns:sodipodi="http://sodipodi.sourceforge.net/DTD/sodipodi-0.dtd"
   xmlns:inkscape="http://www.inkscape.org/namespaces/inkscape"
   version="1.1"
   x="0px"
   y="0px"
   viewBox="0 0 64 80"
   style="enable-background:new 0 0 64 64;"
   xml:space="preserve"
   id="svg4586"
   sodipodi:docname="pond.svg"
   inkscape:version="0.92.2 (5c3e80d, 2017-08-06)"><metadata
     id="metadata4592"><rdf:RDF><cc:Work
         rdf:about=""><dc:format>image/svg+xml</dc:format><dc:type
           rdf:resource="http://purl.org/dc/dcmitype/StillImage" /></cc:Work></rdf:RDF></metadata><defs
     id="defs4590" /><sodipodi:namedview
     pagecolor="#ffffff"
     bordercolor="#666666"
     borderopacity="1"
     objecttolerance="10"
     gridtolerance="10"
     guidetolerance="10"
     inkscape:pageopacity="0"
     inkscape:pageshadow="2"
     inkscape:window-width="1920"
     inkscape:window-height="1025"
     id="namedview4588"
     showgrid="false"
     inkscape:zoom="10.55"
     inkscape:cx="32"
     inkscape:cy="58.957346"
     inkscape:window-x="1080"
     inkscape:window-y="27"
     inkscape:window-maximized="1"
     inkscape:current-layer="svg4586" /><path
     d="M60.948,27.316c0.12-0.359,0.026-0.756-0.241-1.023L59,24.586V22c0-0.379-0.214-0.725-0.553-0.895l-1.789-0.895L53.8,16.4  C53.611,16.148,53.314,16,53,16h-3c-0.197,0-0.391,0.059-0.555,0.168l-2.835,1.891l-4.807,0.961  c-0.193,0.039-0.371,0.134-0.511,0.273l-3,3c-0.14,0.14-0.235,0.317-0.273,0.511l-0.204,1.021c0.092-2.582,0.463-5.116,1.148-7.556  c0.187-0.665,0.878-2.301,1.383-3.495c0.059-0.138,0.115-0.271,0.169-0.399l1.039,0.519C41.695,12.966,41.848,13,42,13  c0.259,0,0.515-0.101,0.707-0.293l3-3c0.128-0.128,0.219-0.289,0.263-0.465l1-4c0.114-0.454-0.104-0.927-0.522-1.137l-4-2  c-0.386-0.192-0.85-0.119-1.154,0.188l-3,3c-0.128,0.128-0.219,0.289-0.263,0.465l-1,4c-0.114,0.454,0.104,0.927,0.522,1.137  l1.169,0.585c-0.069,0.163-0.141,0.334-0.218,0.517c-0.556,1.312-1.246,2.946-1.467,3.734c-0.385,1.374-0.66,2.782-0.869,4.204  c-0.706-1.36-1.587-2.499-2.63-3.313c-2.773-2.164-6.505-3.052-10.229-2.427l-2.474,0.412c-0.477,0.079-0.828,0.487-0.836,0.97  c-0.008,0.483,0.33,0.902,0.804,0.997c3.279,0.655,7.739,4.542,9.919,8.441c-0.767,0.014-1.525,0.041-2.275,0.079  c-0.602-2.072-2.079-3.718-4.137-4.55c-2.268-0.918-4.835-0.66-6.865,0.693c-0.366,0.244-0.53,0.7-0.402,1.122  s0.517,0.71,0.957,0.71c1.746,0,3.218,1.119,3.752,2.713C10.122,27.627,2,32.557,2,38.5C2,46.07,15.178,52,32,52s30-5.93,30-13.5  c0-2.098-1.016-4.07-2.838-5.825L60.948,27.316z M39.903,6.512l2.294-2.295l2.638,1.319l-0.738,2.952l-2.294,2.295l-2.638-1.319  L39.903,6.512z M42.493,20.921l4.703-0.94c0.128-0.025,0.25-0.076,0.358-0.148L50.303,18H52.5l2.7,3.6  c0.093,0.125,0.214,0.226,0.353,0.295L57,22.618V25c0,0.266,0.105,0.52,0.293,0.707l1.562,1.563l-1.343,4.03  c-0.023-0.017-0.051-0.032-0.075-0.049c-0.479-0.345-0.991-0.679-1.536-1.001c-0.009-0.005-0.018-0.01-0.026-0.015  c-3.995-2.353-9.69-4.075-16.338-4.822l0.384-1.92L42.493,20.921z M24.661,16.04c2.823-0.232,5.565,0.533,7.646,2.157  c1.696,1.324,2.948,3.855,3.446,6.907c-0.9-0.049-1.813-0.08-2.738-0.093c-0.013,0-0.027-0.001-0.04-0.001  C31.337,21.541,27.963,18,24.661,16.04z M21.229,22.01c0.795-0.043,1.581,0.084,2.331,0.388c1.337,0.541,2.338,1.551,2.837,2.832  c-0.892,0.073-1.769,0.163-2.629,0.27C23.376,24.028,22.458,22.798,21.229,22.01z M32,50C16.822,50,4,44.733,4,38.5  c0-5.045,8.4-9.455,19.649-10.954c0.46-0.061,0.921-0.118,1.384-0.169c0.299-0.033,0.602-0.061,0.904-0.09  c0.476-0.045,0.953-0.086,1.43-0.119C28.879,27.06,30.426,27,32,27c0.106,0,0.21,0.003,0.315,0.003c0.001,0,0.002,0,0.003,0  c0.749,0.003,1.503,0.02,2.256,0.049c0,0,0.001,0,0.001,0c0.681,0.026,1.36,0.067,2.036,0.114c0.119,0.008,0.237,0.018,0.356,0.027  c0.826,0.063,1.643,0.144,2.452,0.238c0.232,0.027,0.465,0.053,0.694,0.083c0.693,0.088,1.372,0.193,2.045,0.304  c3.337,0.553,6.377,1.365,8.968,2.373c0.219,0.086,0.44,0.171,0.652,0.259c0.096,0.04,0.187,0.081,0.282,0.121  c0.278,0.119,0.554,0.24,0.82,0.364c0.049,0.023,0.096,0.046,0.144,0.068c1.722,0.814,3.189,1.728,4.328,2.722  c0.014,0.012,0.032,0.017,0.047,0.028C59.06,35.209,60,36.819,60,38.5C60,44.733,47.178,50,32,50z"
     id="path4576" /><path
     d="M33,35c-0.563,0-0.804-0.217-1.295-0.707C31.159,33.747,30.411,33,28.996,33s-2.163,0.747-2.71,1.293  C25.795,34.783,25.555,35,24.991,35c-0.562,0-0.802-0.217-1.292-0.707C23.154,33.747,22.407,33,20.993,33  c-1.413,0-2.16,0.747-2.705,1.293c-0.49,0.49-0.73,0.707-1.292,0.707c-0.561,0-0.801-0.217-1.291-0.707  C15.16,33.747,14.413,33,13,33v2c0.561,0,0.801,0.217,1.291,0.707C14.836,36.253,15.583,37,16.996,37  c1.414,0,2.161-0.747,2.706-1.293c0.49-0.49,0.73-0.707,1.291-0.707c0.562,0,0.802,0.217,1.292,0.707  C22.83,36.253,23.577,37,24.991,37c1.415,0,2.162-0.747,2.709-1.292C28.191,35.217,28.433,35,28.996,35s0.804,0.217,1.295,0.707  C30.837,36.253,31.585,37,33,37V35z"
     id="path4578" /><path
     d="M46.996,40c-1.415,0-2.163,0.747-2.71,1.293C43.795,41.783,43.555,42,42.991,42c-0.562,0-0.802-0.217-1.292-0.707  C41.154,40.747,40.407,40,38.993,40c-1.413,0-2.16,0.747-2.705,1.293c-0.49,0.49-0.73,0.707-1.292,0.707  c-0.561,0-0.801-0.217-1.291-0.707C33.16,40.747,32.413,40,31,40v2c0.561,0,0.801,0.217,1.291,0.707  C32.836,43.253,33.583,44,34.996,44c1.414,0,2.161-0.747,2.706-1.293c0.49-0.49,0.73-0.707,1.291-0.707  c0.562,0,0.802,0.217,1.292,0.707C40.83,43.253,41.577,44,42.991,44c1.415,0,2.162-0.747,2.709-1.292  C46.191,42.217,46.433,42,46.996,42s0.804,0.217,1.295,0.707C48.837,43.253,49.585,44,51,44v-2c-0.563,0-0.804-0.217-1.295-0.707  C49.159,40.747,48.411,40,46.996,40z"
     id="path4580" /></svg>