<?xml version="1.0" encoding="UTF-8" standalone="no"?>
<svg
   xmlns:dc="http://purl.org/dc/elements/1.1/"
   xmlns:cc="http://creativecommons.org/ns#"
   xmlns:rdf="http://www.w3.org/1999/02/22-rdf-syntax-ns#"
   xmlns:svg="http://www.w3.org/2000/svg"
   xmlns="http://www.w3.org/2000/svg"
   xmlns:sodipodi="http://sodipodi.sourceforge.net/DTD/sodipodi-0.dtd"
   xmlns:inkscape="http://www.inkscape.org/namespaces/inkscape"
   version="1.1"
   x="0px"
   y="0px"
   viewBox="0 0 200 150"
   enable-background="new 0 0 100 58.918"
   xml:space="preserve"
   id="svg2"
   inkscape:version="0.91 r13725"
   sodipodi:docname="quiet.svg"
   width="200"
   height="150"><metadata
     id="metadata22"><rdf:RDF><cc:Work
         rdf:about=""><dc:format>image/svg+xml</dc:format><dc:type
           rdf:resource="http://purl.org/dc/dcmitype/StillImage" /><dc:title></dc:title></cc:Work></rdf:RDF></metadata><defs
     id="defs20" /><sodipodi:namedview
     pagecolor="#ffffff"
     bordercolor="#666666"
     borderopacity="1"
     objecttolerance="10"
     gridtolerance="10"
     guidetolerance="10"
     inkscape:pageopacity="0"
     inkscape:pageshadow="2"
     inkscape:window-width="1422"
     inkscape:window-height="855"
     id="namedview18"
     showgrid="false"
     inkscape:zoom="2.97"
     inkscape:cx="50"
     inkscape:cy="36.82375"
     inkscape:window-x="75"
     inkscape:window-y="34"
     inkscape:window-maximized="0"
     inkscape:current-layer="svg2" /><path
     d="m 63.437747,89.087665 c 6.21,0 11.263,-5.051 11.263,-11.262 0,-6.21 -5.053,-11.263 -11.263,-11.263 -6.21,0 -11.261,5.053 -11.261,11.263 0,6.212 5.05,11.262 11.261,11.262 z m 0,-17.947 c 3.687,0 6.686,2.999 6.686,6.686 0,3.686 -2.999,6.685 -6.686,6.685 -3.685,0 -6.684,-2.999 -6.684,-6.685 0,-3.688 2.999,-6.686 6.684,-6.686 z"
     id="path4"
     inkscape:connector-curvature="0"
     style="fill:#000000" /><path
     d="m 79.974747,55.485669 1.653,0 -3.271,3.271 c -0.655,0.655 -0.852,1.638 -0.496,2.494 0.353,0.856 1.189,1.413 2.114,1.413 l 7.178,0 c 1.265,0 2.289,-1.024 2.289,-2.289 0,-1.265 -1.024,-2.289 -2.289,-2.289 l -1.654,0 3.272,-3.271 c 0.655,-0.655 0.851,-1.638 0.496,-2.494 -0.354,-0.856 -1.189,-1.412 -2.114,-1.412 l -7.178,0 c -1.265,0 -2.289,1.023 -2.289,2.288 0,1.266 1.024,2.289 2.289,2.289 z"
     id="path6"
     inkscape:connector-curvature="0"
     style="fill:#000000" /><path
     d="m 96.723747,50.699669 4.048003,0 -5.666003,5.665 c -0.655,0.655 -0.852,1.638 -0.496,2.494 0.353,0.854 1.188,1.413 2.114,1.413 l 9.573003,0 c 1.266,0 2.289,-1.023 2.289,-2.289 0,-1.265 -1.023,-2.288 -2.289,-2.288 l -4.047,0 5.666,-5.665 c 0.654,-0.655 0.851,-1.638 0.495,-2.494 -0.353,-0.854 -1.188,-1.412 -2.114,-1.412 l -9.573003,0 c -1.265,0 -2.288,1.023 -2.288,2.288 0,1.264 1.023,2.288 2.288,2.288 z"
     id="path8"
     inkscape:connector-curvature="0"
     style="fill:#000000" /><path
     d="m 113.47575,45.912669 6.44,0 -8.059,8.061 c -0.655,0.655 -0.852,1.638 -0.496,2.494 0.353,0.856 1.188,1.413 2.114,1.413 l 11.965,0 c 1.265,0 2.288,-1.023 2.288,-2.289 0,-1.265 -1.023,-2.288 -2.288,-2.288 l -6.44,0 8.058,-8.061 c 0.655,-0.655 0.852,-1.638 0.496,-2.494 -0.352,-0.856 -1.188,-1.413 -2.113,-1.413 l -11.965,0 c -1.265,0 -2.289,1.023 -2.289,2.289 0,1.264 1.024,2.288 2.289,2.288 z"
     id="path10"
     inkscape:connector-curvature="0"
     style="fill:#000000" /><path
     d="m 147.47475,83.709665 c 0,-3.572 -2.905,-6.477 -6.477,-6.477 l -13.453,0 c 1.011,-1.846 1.064,-4.067 0.104,-5.992 -1.106,-2.21 -3.326,-3.582 -5.793,-3.582 l -39.182003,0 c -0.004,0 -0.009,0 -0.013,0 -1.638,0 -3.198,0.612 -4.398,1.725 -2.622,2.427 -2.778,6.532 -0.351,9.153 l 6.4,6.908 -5.08,2.541 c -1.336,0.668 -2.315,1.752 -2.914,3.005 l -26.554,0 c -1.266,10e-4 -2.289,1.025 -2.289,2.289 0,1.266 1.023,2.289 2.289,2.289 l 26.153,0 c 0.109,0.373 0.241,0.746 0.42,1.105 1.106,2.209 3.327,3.579995 5.797,3.579995 0.997,0 1.996,-0.236 2.892,-0.683995 l 12.801,-6.398 c 1.356,-0.68 2.422003,-1.818 3.028003,-3.186 l 5.049,0 c -0.182,1.271 -0.014,2.59 0.588,3.799 1.105,2.205 3.327,3.578 5.794,3.578 l 26.323,0 c 3.571,0 6.476,-2.906 6.476,-6.477 0,-0.66 -0.134,-1.301 -0.328,-1.922 1.639,-1.176 2.718,-3.087 2.718,-5.254 z m -51.696003,5.369 -12.8,6.398 c -0.918,0.465 -2.092,0.061 -2.548,-0.852 -0.467,-0.934 -0.085,-2.078 0.852,-2.547 l 10.535,-5.266 -10.55,-11.386 c -0.71,-0.768 -0.664,-1.973 0.105,-2.686 0.351,-0.326 0.809,-0.505 1.292,-0.505 0.002,0 0.002,0 0.004,0 l 39.186003,0 c 0.725,0 1.374,0.402 1.698,1.052 0.324,0.648 0.255,1.408 -0.179,1.987 l -4.899,6.535 22.523,0 c 1.049,0 1.899,0.852 1.899,1.9 0,1.047 -0.851,1.898 -1.899,1.898 l -26.322,0 c -0.725,0 -1.375,-0.402 -1.699,-1.05 -0.323,-0.65 -0.254,-1.413 0.179,-1.989 l 2.154,-2.871 c 0.761,-1.013 0.555,-2.447 -0.455,-3.205 -1.015,-0.756 -2.447,-0.557 -3.205,0.459 l -2.154,2.871 c -1.187,1.582 -1.532,3.555 -1.072,5.417 l -0.125,0.17 -7.221,0 c -0.286,-0.894 -0.749,-1.731 -1.397003,-2.432 l -5.879,-6.347 c -0.863,-0.932 -2.309,-0.985 -3.234,-0.123 -0.927,0.858 -0.983,2.307 -0.123,3.234 l 5.879,6.346 c 0.396,0.43 0.57,1.028 0.474,1.605 0,0.002 0,0.002 0,0.004 0,0.002 0.002,0.004 0.002,0.007 -0.002,0.005 0,0.009 0,0.013 -0.107,0.587 -0.489,1.097 -1.021,1.363 z m 42.829003,3.707 -26.323,0 c -0.724,0 -1.377,-0.402 -1.698,-1.045 -0.324,-0.65 -0.257,-1.415 0.177,-1.991 l 0.438,-0.583 c 1.017,0.647 2.21,1.019 3.476,1.019 l 25.688,0 c 0.088,0.222 0.144,0.456 0.144,0.702 -0.003,1.047 -0.854,1.898 -1.902,1.898 z"
     id="path12"
     inkscape:connector-curvature="0"
     style="fill:#000000" /></svg>