<?xml version="1.0" encoding="UTF-8" standalone="no"?>
<svg
   xmlns:dc="http://purl.org/dc/elements/1.1/"
   xmlns:cc="http://creativecommons.org/ns#"
   xmlns:rdf="http://www.w3.org/1999/02/22-rdf-syntax-ns#"
   xmlns:svg="http://www.w3.org/2000/svg"
   xmlns="http://www.w3.org/2000/svg"
   xmlns:sodipodi="http://sodipodi.sourceforge.net/DTD/sodipodi-0.dtd"
   xmlns:inkscape="http://www.inkscape.org/namespaces/inkscape"
   version="1.0"
   x="0px"
   y="0px"
   viewBox="0 0 100 125"
   enable-background="new 0 0 100 100"
   xml:space="preserve"
   id="svg2"
   inkscape:version="0.91 r13725"
   sodipodi:docname="rubbish_bin.svg"><metadata
     id="metadata128"><rdf:RDF><cc:Work
         rdf:about=""><dc:format>image/svg+xml</dc:format><dc:type
           rdf:resource="http://purl.org/dc/dcmitype/StillImage" /></cc:Work></rdf:RDF></metadata><defs
     id="defs126" /><sodipodi:namedview
     pagecolor="#ffffff"
     bordercolor="#666666"
     borderopacity="1"
     objecttolerance="10"
     gridtolerance="10"
     guidetolerance="10"
     inkscape:pageopacity="0"
     inkscape:pageshadow="2"
     inkscape:window-width="1601"
     inkscape:window-height="818"
     id="namedview124"
     showgrid="false"
     inkscape:zoom="1.888"
     inkscape:cx="50"
     inkscape:cy="62.5"
     inkscape:window-x="75"
     inkscape:window-y="34"
     inkscape:window-maximized="0"
     inkscape:current-layer="svg2" /><g
     id="g114"><path
       fill="#000000"
       d="M64.161,31H35.838H17.983L30.97,99h4.869h28.323h4.869l12.986-68H64.161z M49,82.362   c0,0.001-0.109,0.011-0.178,0.011c-0.778,0.005-1.558,0.007-2.335,0.013c-2.043,0.011-4.085,0.018-6.129,0.045   c-1.482,0.022-2.706-0.55-3.782-1.534c-0.695-0.635-1.11-1.457-1.568-2.248c-1.819-3.166-3.64-6.331-5.442-9.505   c-0.422-0.742-0.5-1.577-0.482-2.418c0.017-0.941,0.32-1.792,0.782-2.606c0.631-1.104,1.231-2.226,1.859-3.36   c-1.09-0.622-2.172-1.238-3.306-1.883c0.117-0.011,0.169-0.021,0.227-0.021c1.57-0.004,3.143-0.004,4.714-0.011   c1.625-0.008,3.252-0.021,4.878-0.038c0.148,0,0.239,0.034,0.318,0.172c1.638,2.791,3.283,5.575,4.924,8.362   c0.011,0.021,0.017,0.043,0.052,0.124c-1.05-0.593-2.054-1.156-3.089-1.74c-0.317,0.559-0.618,1.091-0.919,1.621   c-0.716,1.272-1.436,2.544-2.151,3.816c-0.049,0.089-0.101,0.181-0.13,0.276c-0.146,0.468,0.121,0.842,0.61,0.851   c0.441,0.007,0.882,0.004,1.322,0.004c2.215-0.005,4.432-0.007,6.648-0.013c0.965-0.003,1.936-0.008,2.902-0.011   c0.076-0.004,0.276,0,0.276,0C49,75.635,49,78.984,49,82.362z M51.148,57.006c0.991-0.586,1.983-1.144,2.999-1.738   c-0.301-0.518-0.59-1.003-0.887-1.501c-0.752-1.278-1.504-2.551-2.259-3.831c-0.028-0.046-0.053-0.089-0.085-0.135   c-0.345-0.531-0.878-0.519-1.191,0.026c-1.792,3.108-3.582,6.221-5.373,9.332c-0.045,0.081-0.094,0.159-0.155,0.261   c-2.918-1.678-5.829-3.352-8.755-5.037c0.288-0.513,0.571-1.018,0.858-1.521c1.183-2.081,2.35-4.174,3.561-6.238   c0.736-1.252,1.893-1.977,3.279-2.319c0.484-0.121,0.992-0.178,1.491-0.183c1.642-0.017,3.283-0.002,4.927,0.004   c2.358,0.009,4.715,0,7.072,0.042c1.002,0.019,1.883,0.45,2.692,1.026c0.742,0.528,1.235,1.259,1.685,2.034   c0.553,0.95,1.132,1.886,1.696,2.829c0.032,0.053,0.066,0.104,0.115,0.182c1.073-0.626,2.138-1.245,3.203-1.865   c0.01,0.01,0.02,0.02,0.028,0.031c-0.024,0.053-0.05,0.107-0.078,0.159c-1.576,2.764-3.153,5.524-4.728,8.288   c-0.081,0.146-0.175,0.189-0.334,0.189c-1.801,0.002-3.599-0.044-5.397-0.03C54.147,57.02,52.78,57,51.411,57   c-0.084,0-0.167,0-0.255,0C51.154,57,51.152,57.023,51.148,57.006z M64.724,80.076c-0.467,0.789-1.211,1.307-2.021,1.719   c-0.871,0.443-1.497,0.548-2.454,0.545C59.07,82.334,57,82.336,57,82.336c0,1.295,0,2.527,0,3.832c0-0.104-0.426-0.148-0.451-0.198   c-1.604-2.747-3.36-5.495-4.965-8.24c-0.074-0.129-0.168-0.224-0.09-0.36c1.591-2.792,3.482-5.583,5.068-8.378   C56.585,68.954,57,68.915,57,68.88c0,1.154,0,2.31,0,3.493c0,0,0.324,0.003,0.635,0c1.752-0.015,3.332-0.028,5.082-0.048   c0.147-0.001,0.216-0.015,0.354-0.061c0.417-0.137,0.5-0.552,0.254-0.979c-0.486-0.845-0.994-1.686-1.483-2.529   c-1.325-2.289-2.66-4.58-3.986-6.87c-0.032-0.062-0.071-0.124-0.11-0.207c2.909-1.682,5.812-3.364,8.737-5.055   c0.294,0.496,0.571,0.968,0.848,1.439c1.218,2.088,2.444,4.173,3.655,6.267c0.468,0.807,0.622,1.697,0.593,2.625   c-0.041,1.16-0.446,2.189-1.033,3.182C68.591,73.443,66.676,76.772,64.724,80.076z"
       id="path116" /><path
       fill="#000000"
       d="M84.617,28.194l-2.024-4.398l-0.56-1.214h-1.278h-1.548L71.554,5.945L69.39,1.241h-0.001h-4.958h-0.002   H35.571h-4.959h-0.001l-2.165,4.704l-7.653,16.636h-1.548h-0.001h-1.278l-0.558,1.214l-2.024,4.398L14.552,30h2.828h1.865h0.001   h7.443h4.693h4.189h28.857h0.002h4.187h4.694l0,0h7.443h1.865h2.827L84.617,28.194z M65.935,24.858H34.065   c-1.886,0-3.415-1.527-3.415-3.414V18.03c0-1.886,1.529-3.415,3.415-3.415h31.869c1.887,0,3.416,1.528,3.416,3.415v3.415   C69.351,23.331,67.821,24.858,65.935,24.858z"
       id="path118" /></g></svg>