<?xml version="1.0" encoding="UTF-8" standalone="no"?>
<svg
   xmlns:dc="http://purl.org/dc/elements/1.1/"
   xmlns:cc="http://creativecommons.org/ns#"
   xmlns:rdf="http://www.w3.org/1999/02/22-rdf-syntax-ns#"
   xmlns:svg="http://www.w3.org/2000/svg"
   xmlns="http://www.w3.org/2000/svg"
   xmlns:sodipodi="http://sodipodi.sourceforge.net/DTD/sodipodi-0.dtd"
   xmlns:inkscape="http://www.inkscape.org/namespaces/inkscape"
   version="1.1"
   x="0px"
   y="0px"
   viewBox="0 0 100 125"
   enable-background="new 0 0 100 100"
   xml:space="preserve"
   id="svg2"
   inkscape:version="0.91 r13725"
   sodipodi:docname="serviceteam.svg"><metadata
     id="metadata20"><rdf:RDF><cc:Work
         rdf:about=""><dc:format>image/svg+xml</dc:format><dc:type
           rdf:resource="http://purl.org/dc/dcmitype/StillImage" /></cc:Work></rdf:RDF></metadata><defs
     id="defs18" /><sodipodi:namedview
     pagecolor="#ffffff"
     bordercolor="#666666"
     borderopacity="1"
     objecttolerance="10"
     gridtolerance="10"
     guidetolerance="10"
     inkscape:pageopacity="0"
     inkscape:pageshadow="2"
     inkscape:window-width="640"
     inkscape:window-height="480"
     id="namedview16"
     showgrid="false"
     inkscape:zoom="1.888"
     inkscape:cx="50"
     inkscape:cy="62.5"
     inkscape:window-x="75"
     inkscape:window-y="34"
     inkscape:window-maximized="0"
     inkscape:current-layer="svg2" /><path
     d="M43.78,55.297c-8.541,0-15.598-9.258-16.731-21.278h-2.323c1.291,13.689,9.328,24.235,19.054,24.235  s17.764-10.546,19.055-24.235h-2.322C59.378,46.039,52.321,55.297,43.78,55.297z"
     id="path4" /><path
     d="M57.232,90.174c-1.714,0-3.326-0.667-4.541-1.879c-2.501-2.501-2.501-6.571,0-9.072l19.025-19.025  c-3.254-2.302-7.057-3.879-11.188-4.453c-0.043-0.006-0.089-0.011-0.134-0.019c-0.356-0.045-0.715-0.088-1.075-0.121  c-0.001,0.037-0.012,0.074-0.013,0.109c-0.005,0.106-0.023,0.208-0.036,0.316c-0.067,0.598-0.245,1.181-0.525,1.739  c-1.881,4.736-7.966,13.71-11.55,18.803l-0.738-10.583c1.046-0.538,1.946-1.425,2.523-2.456c0.415-0.741,0.669-1.55,0.669-2.374  c0,0-2.674,1.186-5.402,1.186c-0.156,0-0.311-0.006-0.467-0.014c-0.156,0.008-0.311,0.014-0.467,0.014  c-2.729,0-5.402-1.186-5.402-1.186c0,0.824,0.254,1.633,0.669,2.374c0.578,1.031,1.477,1.918,2.523,2.456l-0.738,10.583  c-3.584-5.093-9.669-14.066-11.549-18.803c-0.28-0.559-0.459-1.142-0.525-1.739c-0.013-0.108-0.032-0.21-0.037-0.316  c-0.001-0.035-0.011-0.072-0.012-0.109c-0.362,0.033-0.72,0.076-1.076,0.121c-0.045,0.008-0.091,0.013-0.135,0.019  C14.582,57.476,5,68.164,5,81.092c0,14.137,11.462,14.104,25.599,14.104H43.78h13.183c14.136,0,25.598,0.033,25.598-14.104  c0-3.969-0.91-7.722-2.522-11.074L61.767,88.293C60.557,89.506,58.946,90.174,57.232,90.174z"
     id="path6" /><path
     d="M23.818,31.171h0.649h3.5h1.347h28.934h1.347h3.5h0.646c1.556,0,2.816-1.26,2.816-2.815s-1.261-2.816-2.816-2.816h-0.767  c0-7.48-4.283-13.957-10.528-17.125l-0.571,3.245l-1.019,5.774c-0.125,0.714-0.746,1.217-1.446,1.217  c-0.085,0-0.172-0.008-0.258-0.023c-0.802-0.141-1.335-0.903-1.193-1.705l1.121-6.364l0.694-3.939  c-0.682-1.09-1.89-1.816-3.271-1.816h-5.447c-1.38,0-2.587,0.726-3.27,1.816l0.694,3.939l1.122,6.364  c0.141,0.801-0.392,1.563-1.194,1.705c-0.086,0.016-0.171,0.023-0.256,0.023c-0.702,0-1.323-0.502-1.449-1.217l-1.018-5.773  l-0.572-3.244c-6.246,3.166-10.527,9.643-10.527,17.123h-0.769c-1.555,0-2.814,1.261-2.814,2.816S22.263,31.171,23.818,31.171z"
     id="path8" /><path
     d="M88.052,59.993h-4.105l-2.959-2.952l-0.001-4.115l4.953-4.952l-1.993-1.991c-2.575,0.101-5.122,1.135-7.087,3.104  c-3.045,3.039-3.851,7.465-2.435,11.244L54.111,80.643c-1.717,1.716-1.724,4.509,0,6.232c0.862,0.858,1.992,1.29,3.121,1.29  c1.127,0,2.253-0.43,3.111-1.29l20.311-20.316c1.201,0.449,2.466,0.674,3.731,0.674c2.717,0,5.434-1.034,7.511-3.105  c1.97-1.974,3.004-4.514,3.104-7.093l-1.993-1.994L88.052,59.993z M58.732,85.261c-0.418,0.417-0.962,0.624-1.506,0.624  c-0.545,0-1.088-0.207-1.506-0.622c-0.824-0.83-0.829-2.18-0.002-3.014c0.417-0.415,0.96-0.622,1.504-0.622  c0.546,0,1.092,0.209,1.507,0.629C59.563,83.085,59.562,84.433,58.732,85.261z"
     id="path10" /></svg>