<?xml version="1.0" encoding="UTF-8" standalone="no"?>
<svg
   xmlns:dc="http://purl.org/dc/elements/1.1/"
   xmlns:cc="http://creativecommons.org/ns#"
   xmlns:rdf="http://www.w3.org/1999/02/22-rdf-syntax-ns#"
   xmlns:svg="http://www.w3.org/2000/svg"
   xmlns="http://www.w3.org/2000/svg"
   xmlns:sodipodi="http://sodipodi.sourceforge.net/DTD/sodipodi-0.dtd"
   xmlns:inkscape="http://www.inkscape.org/namespaces/inkscape"
   version="1.1"
   x="0px"
   y="0px"
   viewBox="0 0 100 125"
   enable-background="new 0 0 100 100"
   xml:space="preserve"
   id="svg2"
   inkscape:version="0.91 r13725"
   sodipodi:docname="telescope.svg"><metadata
     id="metadata22"><rdf:RDF><cc:Work
         rdf:about=""><dc:format>image/svg+xml</dc:format><dc:type
           rdf:resource="http://purl.org/dc/dcmitype/StillImage" /></cc:Work></rdf:RDF></metadata><defs
     id="defs20" /><sodipodi:namedview
     pagecolor="#ffffff"
     bordercolor="#666666"
     borderopacity="1"
     objecttolerance="10"
     gridtolerance="10"
     guidetolerance="10"
     inkscape:pageopacity="0"
     inkscape:pageshadow="2"
     inkscape:window-width="891"
     inkscape:window-height="480"
     id="namedview18"
     showgrid="false"
     inkscape:zoom="1.888"
     inkscape:cx="50"
     inkscape:cy="62.5"
     inkscape:window-x="65"
     inkscape:window-y="24"
     inkscape:window-maximized="0"
     inkscape:current-layer="svg2" /><path
     fill="#000000"
     d="M61.865,94.893l-9.974-34.597c-0.009-0.031-0.032-0.054-0.043-0.083c2.486-1.694,3.755-4.84,2.916-7.9  c-0.861-3.135-3.73-5.325-6.978-5.325c-0.646,0-1.292,0.087-1.921,0.26c-1.865,0.512-3.419,1.719-4.376,3.4  c-0.957,1.68-1.201,3.633-0.689,5.498c0.371,1.353,1.131,2.512,2.119,3.412c-0.01,0.026-0.03,0.045-0.039,0.072L32.378,94.62  c-0.165,0.548,0.146,1.125,0.694,1.289c0.099,0.03,0.199,0.044,0.298,0.044c0.445,0,0.856-0.289,0.991-0.737l10.342-34.457  c0.561,0.266,1.151,0.471,1.773,0.585l-0.069,34.003c-0.001,0.571,0.461,1.036,1.033,1.037c0,0,0.001,0,0.002,0  c0.571,0,1.034-0.462,1.035-1.033l0.069-33.931c0.388-0.042,0.774-0.104,1.153-0.208c0.095-0.026,0.184-0.062,0.276-0.091  l9.902,34.346c0.13,0.453,0.544,0.748,0.993,0.748c0.096,0,0.192-0.013,0.288-0.041C61.707,96.016,62.024,95.442,61.865,94.893z"
     id="path4" /><g
     id="g6"><path
       fill="#000000"
       d="M82.48,16.723c-0.153-0.282-0.505-0.387-0.79-0.232l-13.563,7.403c-0.135,0.074-0.235,0.199-0.279,0.347   s-0.026,0.308,0.048,0.443l9.15,16.758c0.074,0.136,0.198,0.236,0.347,0.28c0.054,0.016,0.109,0.023,0.164,0.023   c0.097,0,0.192-0.024,0.279-0.071l13.56-7.405c0.282-0.154,0.386-0.507,0.231-0.79L82.48,16.723z"
       id="path8" /><path
       fill="#000000"
       d="M98.221,32.196L86.903,11.468c-0.074-0.136-0.198-0.236-0.347-0.28s-0.308-0.027-0.443,0.048l-4.172,2.278   c-0.282,0.154-0.386,0.507-0.231,0.79l11.317,20.727c0.105,0.194,0.306,0.303,0.512,0.303c0.094,0,0.189-0.023,0.278-0.071   l4.172-2.277c0.135-0.074,0.235-0.199,0.279-0.347S98.295,32.332,98.221,32.196z"
       id="path10" /><path
       fill="#000000"
       d="M75.295,39.382c0,0-0.001-0.001-0.002-0.002l-6.06-11.101c0,0,0,0,0-0.001   c-0.153-0.282-0.507-0.388-0.791-0.232L31.647,48.135c0,0,0,0-0.001,0c-0.212,0.116-0.324,0.344-0.301,0.571   c0.007,0.075,0.03,0.15,0.068,0.221l1.608,2.945L12.601,63.021l-0.414-0.758c-0.141-0.259-0.463-0.355-0.722-0.212l-1.842,1.005   l-0.447-0.819l0.655-0.357c0.251-0.138,0.344-0.452,0.207-0.703l-1.643-3.012c-0.066-0.121-0.177-0.211-0.309-0.249   c-0.132-0.041-0.274-0.024-0.395,0.042l-0.656,0.357l-0.436-0.799c-0.066-0.121-0.177-0.211-0.309-0.249   c-0.132-0.041-0.274-0.024-0.395,0.042L2.74,59.032c-0.251,0.138-0.344,0.452-0.207,0.703l0.436,0.798L2.188,60.96   c-0.121,0.066-0.21,0.177-0.249,0.309c-0.039,0.132-0.023,0.274,0.042,0.395l1.644,3.012c0.066,0.121,0.177,0.211,0.309,0.249   c0.048,0.015,0.097,0.021,0.146,0.021c0.086,0,0.171-0.021,0.249-0.063l0.781-0.427l0.447,0.819l-1.563,0.854   c-0.124,0.067-0.216,0.182-0.256,0.316c-0.04,0.136-0.024,0.281,0.043,0.405l3.821,6.998c0.097,0.178,0.279,0.277,0.468,0.277   c0.086,0,0.173-0.021,0.254-0.065l7.47-4.077c0.124-0.067,0.216-0.182,0.256-0.316c0.04-0.136,0.024-0.281-0.043-0.405   l-0.391-0.717l20.421-11.148l1.438,2.634c0.106,0.194,0.306,0.304,0.513,0.304c0.094,0,0.19-0.022,0.279-0.07l1.655-0.903   c0.283-0.153,0.387-0.508,0.233-0.791c-0.011-0.02-0.028-0.031-0.041-0.049c-2.997-5.576-0.527-10.279,3.051-12.294   c3.645-2.055,9.051-1.708,12.346,3.869c0.011,0.033,0.014,0.066,0.03,0.098c0.106,0.193,0.306,0.303,0.513,0.303   c0.094,0,0.19-0.023,0.279-0.072l18.729-10.249c0.03-0.017,0.05-0.043,0.076-0.064c0.035-0.028,0.074-0.051,0.101-0.085   c0.002-0.002,0.003-0.006,0.005-0.009c0.044-0.058,0.078-0.122,0.098-0.19c0.006-0.021,0.002-0.042,0.006-0.064   c0.01-0.052,0.021-0.104,0.015-0.158C75.355,39.529,75.334,39.453,75.295,39.382z"
       id="path12" /></g></svg>