<?xml version="1.0" encoding="UTF-8" standalone="no"?>
<svg
   xmlns:dc="http://purl.org/dc/elements/1.1/"
   xmlns:cc="http://creativecommons.org/ns#"
   xmlns:rdf="http://www.w3.org/1999/02/22-rdf-syntax-ns#"
   xmlns:svg="http://www.w3.org/2000/svg"
   xmlns="http://www.w3.org/2000/svg"
   xmlns:sodipodi="http://sodipodi.sourceforge.net/DTD/sodipodi-0.dtd"
   xmlns:inkscape="http://www.inkscape.org/namespaces/inkscape"
   version="1.1"
   x="0px"
   y="0px"
   viewBox="0 0 100 125"
   enable-background="new 0 0 100 100"
   xml:space="preserve"
   id="svg2"
   inkscape:version="0.91 r13725"
   sodipodi:docname="tent.svg"><metadata
     id="metadata14"><rdf:RDF><cc:Work
         rdf:about=""><dc:format>image/svg+xml</dc:format><dc:type
           rdf:resource="http://purl.org/dc/dcmitype/StillImage" /></cc:Work></rdf:RDF></metadata><defs
     id="defs12" /><sodipodi:namedview
     pagecolor="#ffffff"
     bordercolor="#666666"
     borderopacity="1"
     objecttolerance="10"
     gridtolerance="10"
     guidetolerance="10"
     inkscape:pageopacity="0"
     inkscape:pageshadow="2"
     inkscape:window-width="640"
     inkscape:window-height="480"
     id="namedview10"
     showgrid="false"
     inkscape:zoom="1.888"
     inkscape:cx="50"
     inkscape:cy="62.5"
     inkscape:window-x="75"
     inkscape:window-y="34"
     inkscape:window-maximized="0"
     inkscape:current-layer="svg2" /><path
     fill="#000000"
     d="M50,16.4c-1.3,0-2.3,1-2.3,2.3v7.7L17,62.8c0,0.1-0.1,0.1-0.1,0.2l0,0l0,0l-5.7,8.5  c-0.7,1-0.4,2.5,0.6,3.2s2.5,0.4,3.2-0.6l1.5-2.3v9.6c0,1.3,1,2.3,2.3,2.3h25.6c1.1,0,2-0.8,2.2-1.9l3.5-19l3.5,19  c0.2,1.1,1.1,1.9,2.2,1.9h25.6c1.3,0,2.3-1,2.3-2.3v-9.6l1.5,2.3c0.4,0.7,1.2,1,1.9,1c0.4,0,0.9-0.1,1.3-0.4c1-0.7,1.3-2.1,0.6-3.2  L83.3,63l0,0l0,0c0-0.1-0.1-0.1-0.1-0.2L52.4,26.3v-7.7C52.4,17.4,51.4,16.4,50,16.4z M57.6,79l-5.4-29.5c-0.2-1.1-1.1-1.9-2.2-1.9  s-2,0.8-2.2,1.9L42.5,79H21V65l29-34.3L79.2,65v14H57.6z M93.8,73.6c1.1,0.6,1.6,1.9,1,3.1L92,82.3c-0.4,0.8-1.2,1.3-2,1.3  c-0.3,0-0.7-0.1-1-0.2c-1.1-0.6-1.6-1.9-1-3.1l2.8-5.7C91.2,73.5,92.7,73,93.8,73.6z M5.2,76.7c-0.6-1.1-0.1-2.5,1-3.1  s2.5-0.1,3.1,1l2.8,5.7c0.6,1.1,0.1,2.5-1,3.1c-0.3,0.2-0.7,0.2-1,0.2c-0.8,0-1.6-0.5-2-1.3L5.2,76.7z"
     id="path4" /></svg>