<?xml version="1.0" encoding="UTF-8" standalone="no"?>
<svg
   xmlns:dc="http://purl.org/dc/elements/1.1/"
   xmlns:cc="http://creativecommons.org/ns#"
   xmlns:rdf="http://www.w3.org/1999/02/22-rdf-syntax-ns#"
   xmlns:svg="http://www.w3.org/2000/svg"
   xmlns="http://www.w3.org/2000/svg"
   xmlns:sodipodi="http://sodipodi.sourceforge.net/DTD/sodipodi-0.dtd"
   xmlns:inkscape="http://www.inkscape.org/namespaces/inkscape"
   version="1.1"
   x="0px"
   y="0px"
   viewBox="0 0 24.667 38.125"
   enable-background="new 0 0 24.667 30.5"
   xml:space="preserve"
   id="svg2"
   inkscape:version="0.91 r13725"
   sodipodi:docname="tree.svg"><metadata
     id="metadata20"><rdf:RDF><cc:Work
         rdf:about=""><dc:format>image/svg+xml</dc:format><dc:type
           rdf:resource="http://purl.org/dc/dcmitype/StillImage" /></cc:Work></rdf:RDF></metadata><defs
     id="defs18" /><sodipodi:namedview
     pagecolor="#ffffff"
     bordercolor="#666666"
     borderopacity="1"
     objecttolerance="10"
     gridtolerance="10"
     guidetolerance="10"
     inkscape:pageopacity="0"
     inkscape:pageshadow="2"
     inkscape:window-width="776"
     inkscape:window-height="593"
     id="namedview16"
     showgrid="false"
     inkscape:zoom="6.1901639"
     inkscape:cx="12.3335"
     inkscape:cy="19.0625"
     inkscape:window-x="75"
     inkscape:window-y="34"
     inkscape:window-maximized="0"
     inkscape:current-layer="svg2" /><g
     id="g4"><g
       id="g6"><g
         id="g8"><path
           d="M12.361,29.838h-0.06h-1.886v-6.292c-0.991,0.462-2.607,1.045-4.476,1.052l0,0c-1.358,0.001-2.857-0.323-4.281-1.252l0,0     l-0.997-0.649l1.071-0.516c1.813-0.858,3.741-2.826,5.054-4.36l0,0c-0.942,0.336-2.017,0.627-3.028,0.633l0,0     c-0.579-0.002-1.155-0.098-1.664-0.402l0,0l-0.799-0.483l0.711-0.603c2.576-2.179,4.692-5.114,5.882-6.953l0,0     c-0.141,0.022-0.287,0.035-0.437,0.036l0,0c-0.547,0.01-1.202-0.206-1.634-0.762l0,0L5.264,8.591l0.822-0.343     c0.221-0.086,0.63-0.376,1.071-0.788l0,0c0.446-0.409,0.941-0.937,1.434-1.5l0,0c0.986-1.13,1.962-2.408,2.583-3.247l0,0     c0.412-0.559,0.665-0.917,0.665-0.92l0,0L12.395,1l0.547,0.801c0,0,0.137,0.201,0.377,0.539l0,0     c0.239,0.338,0.58,0.81,0.979,1.342l0,0c0.797,1.066,1.838,2.378,2.769,3.336l0,0c0.611,0.639,1.212,1.115,1.511,1.229l0,0     l0.821,0.343l-0.556,0.695c-0.433,0.555-1.086,0.772-1.634,0.762l0,0c-0.15-0.001-0.296-0.014-0.436-0.035l0,0     c0.254,0.392,0.55,0.836,0.885,1.312l0,0c1.229,1.747,2.974,3.927,4.997,5.64l0,0l0.713,0.604l-0.801,0.482     c-0.51,0.305-1.087,0.4-1.664,0.402l0,0c-1.012-0.006-2.086-0.297-3.028-0.633l0,0c0.156,0.184,0.321,0.373,0.495,0.567l0,0     c1.269,1.423,2.977,3.037,4.559,3.793l0,0L24,22.696l-0.997,0.649c-1.423,0.929-2.923,1.253-4.28,1.252l0,0     c-1.87-0.007-3.486-0.59-4.476-1.052l0,0v6.292H12.361L12.361,29.838z M11.757,28.496h0.545h0.06h0.545v-7.299l1.034,0.669     c0.001,0,0.023,0.016,0.084,0.051l0,0c0.061,0.036,0.153,0.091,0.275,0.156l0,0c0.242,0.13,0.599,0.307,1.038,0.482l0,0     c0.877,0.354,2.087,0.701,3.385,0.701l0,0c0.821-0.001,1.676-0.137,2.527-0.493l0,0c-1.461-0.954-2.809-2.291-3.88-3.482l0,0     c-1.329-1.484-2.21-2.747-2.221-2.761l0,0l0.551-0.384l-0.551,0.384l0.869-0.974c0,0,0.041,0.021,0.124,0.063l0,0     c0.083,0.043,0.203,0.105,0.358,0.18l0,0c0.307,0.149,0.74,0.349,1.237,0.546l0,0c0.957,0.387,2.165,0.756,3.074,0.775l0,0     c-3.765-3.581-6.246-8.158-6.269-8.189l0,0l0.981-0.865c0,0,0.006,0.005,0.032,0.022l0,0c0.024,0.017,0.064,0.042,0.115,0.074     l0,0c0.102,0.064,0.249,0.15,0.421,0.234l0,0c0.226,0.114,0.499,0.218,0.751,0.275l0,0c-0.241-0.214-0.487-0.453-0.74-0.709l0,0     c-0.671-0.69-1.363-1.517-1.994-2.313l0,0c-0.693-0.879-1.313-1.723-1.73-2.305l0,0c-0.811,1.107-2.381,3.173-3.809,4.622l0,0     C8.316,8.213,8.068,8.451,7.825,8.663l0,0c0.536-0.125,1.147-0.48,1.281-0.585l0,0c0.026-0.017,0.032-0.021,0.032-0.021l0,0     l0.979,0.865c-0.022,0.031-2.503,4.609-6.269,8.189l0,0c0.791-0.018,1.813-0.297,2.693-0.628l0,0     c0.916-0.339,1.688-0.723,1.979-0.873l0,0c0.082-0.042,0.122-0.063,0.122-0.063l0,0l0.87,0.974     c-0.009,0.014-0.891,1.276-2.221,2.761l0,0c-1.07,1.191-2.417,2.529-3.879,3.482l0,0c0.852,0.356,1.706,0.49,2.528,0.492l0,0     c2.271,0.008,4.273-1.08,4.699-1.339l0,0c0.062-0.035,0.084-0.051,0.084-0.051l0,0l1.034-0.669V28.496L11.757,28.496z"
           id="path10" /></g></g></g></svg>