<?xml version="1.0" encoding="UTF-8" standalone="no"?>
<svg
   xmlns:dc="http://purl.org/dc/elements/1.1/"
   xmlns:cc="http://creativecommons.org/ns#"
   xmlns:rdf="http://www.w3.org/1999/02/22-rdf-syntax-ns#"
   xmlns:svg="http://www.w3.org/2000/svg"
   xmlns="http://www.w3.org/2000/svg"
   xmlns:sodipodi="http://sodipodi.sourceforge.net/DTD/sodipodi-0.dtd"
   xmlns:inkscape="http://www.inkscape.org/namespaces/inkscape"
   version="1.1"
   x="0px"
   y="0px"
   viewBox="479.5 0 100 125"
   enable-background="new 479.5 0 100 100"
   xml:space="preserve"
   id="svg2"
   inkscape:version="0.91 r13725"
   sodipodi:docname="wahingup.svg"><metadata
     id="metadata166"><rdf:RDF><cc:Work
         rdf:about=""><dc:format>image/svg+xml</dc:format><dc:type
           rdf:resource="http://purl.org/dc/dcmitype/StillImage" /></cc:Work></rdf:RDF></metadata><defs
     id="defs164" /><sodipodi:namedview
     pagecolor="#ffffff"
     bordercolor="#666666"
     borderopacity="1"
     objecttolerance="10"
     gridtolerance="10"
     guidetolerance="10"
     inkscape:pageopacity="0"
     inkscape:pageshadow="2"
     inkscape:window-width="1689"
     inkscape:window-height="764"
     id="namedview162"
     showgrid="false"
     inkscape:zoom="1.888"
     inkscape:cx="11.573254"
     inkscape:cy="62.5"
     inkscape:window-x="75"
     inkscape:window-y="34"
     inkscape:window-maximized="0"
     inkscape:current-layer="svg2" /><path
     d="M552.154,21.878c-0.991-0.992-1.386-2.403-1.525-3.612c-0.14,1.209-0.533,2.621-1.524,3.612  c-0.991,0.992-2.403,1.385-3.612,1.525l0,0c1.209,0.14,2.621,0.533,3.612,1.525c0.99,0.992,1.386,2.402,1.524,3.611  c0.14-1.209,0.534-2.62,1.525-3.611c0.991-0.991,2.399-1.385,3.607-1.525c0.001,0,0.002,0,0.004,0  C554.557,23.264,553.146,22.87,552.154,21.878z"
     id="path8" /><path
     d="M560.282,65.876v-9.187c0-1.967-1.709-3.391-4.201-4.32c0.205-1.419,0.309-2.86,0.309-4.301  c0-16.468-13.396-29.865-29.864-29.865S496.66,31.6,496.66,48.068c0,16.468,13.397,29.866,29.865,29.866  c2.689,0,5.338-0.355,7.899-1.058v2.536c0,3.895,6.701,5.667,12.93,5.667c6.227,0,12.929-1.772,12.929-5.667v-4.283  c0.71-1.414,1.094-2.99,1.094-4.625C561.376,68.866,560.992,67.291,560.282,65.876z M526.524,73.799  c-14.188,0-25.73-11.543-25.73-25.731s11.543-25.73,25.73-25.73s25.729,11.542,25.729,25.73c0,1.104-0.071,2.208-0.211,3.298  c-1.517-0.231-3.119-0.345-4.69-0.345c-1.435,0-2.894,0.096-4.289,0.289c0.179-0.98,0.27-1.979,0.27-2.983  c0-9.126-7.424-16.55-16.55-16.55s-16.55,7.424-16.55,16.55h3.136c0-7.397,6.017-13.415,13.414-13.415  c7.396,0,13.415,6.018,13.415,13.415c0,1.256-0.176,2.497-0.519,3.692c-3.053,0.903-5.256,2.438-5.256,4.67v2.662  c-2.246,1.564-4.869,2.39-7.642,2.39c-2.544,0-5.021-0.716-7.159-2.067l-1.675,2.65c2.641,1.67,5.695,2.553,8.834,2.553  c2.668,0,5.294-0.654,7.642-1.875v9.561C531.882,73.383,529.229,73.799,526.524,73.799z M557.147,62.208  c-1.058-0.601-2.422-0.36-3.2,0.621c-0.86,1.085-0.68,2.663,0.405,3.524c1.274,1.012,2.007,2.523,2.007,4.149  c0,1.624-0.731,3.136-2.005,4.147c-1.086,0.861-1.267,2.439-0.404,3.524c0.496,0.624,1.227,0.948,1.967,0.948  c0.422,0,0.846-0.107,1.23-0.325v0.607c-0.033,0.151-0.554,0.846-2.537,1.515c-1.953,0.66-4.53,1.023-7.258,1.023  c-2.727,0-5.304-0.363-7.257-1.023c-1.983-0.669-2.504-1.363-2.537-1.515V60.557c2.529,1.221,6.238,1.801,9.794,1.801  c3.557,0,7.266-0.58,9.795-1.801V62.208z M554.61,58.2c-1.953,0.659-4.53,1.022-7.258,1.022c-2.727,0-5.304-0.363-7.257-1.022  c-1.983-0.67-2.504-1.363-2.537-1.501v-0.003c0.033-0.153,0.554-0.847,2.537-1.518c1.953-0.659,4.53-1.021,7.257-1.021  c2.728,0,5.305,0.362,7.258,1.021c1.989,0.673,2.508,1.369,2.537,1.503C557.118,56.832,556.601,57.527,554.61,58.2z"
     id="path30" /><path
     d="M542.968,69.299c-0.781-0.781-1.092-1.894-1.202-2.847c-0.109,0.953-0.42,2.065-1.202,2.847  c-0.78,0.782-1.894,1.092-2.847,1.202l0,0c0.953,0.11,2.065,0.42,2.847,1.203c0.782,0.78,1.093,1.894,1.202,2.846  c0.11-0.952,0.421-2.063,1.202-2.846s1.894-1.092,2.844-1.203c0.002,0,0.002,0,0.002,0  C544.861,70.393,543.749,70.081,542.968,69.299z"
     id="path32" /><path
     d="M537.194,28.896c-0.781-0.782-1.092-1.894-1.201-2.847c-0.11,0.953-0.421,2.065-1.203,2.847  c-0.781,0.782-1.895,1.092-2.846,1.202l0,0c0.951,0.11,2.063,0.42,2.846,1.202c0.782,0.781,1.093,1.893,1.203,2.846  c0.109-0.953,0.42-2.065,1.201-2.846c0.78-0.781,1.893-1.091,2.844-1.202c0.002,0,0.002,0,0.003,0  C539.088,29.988,537.976,29.678,537.194,28.896z"
     id="path34" /><path
     d="M547.832,75.388c-0.312-0.311-0.435-0.754-0.479-1.133c-0.044,0.379-0.166,0.822-0.479,1.133  c-0.312,0.312-0.754,0.436-1.134,0.479l0,0c0.38,0.044,0.821,0.167,1.134,0.479c0.312,0.312,0.435,0.754,0.479,1.133  c0.045-0.379,0.168-0.821,0.479-1.133c0.311-0.311,0.752-0.435,1.131-0.479c0.001,0,0.001,0,0.001,0  C548.586,75.823,548.144,75.699,547.832,75.388z"
     id="path36" /><path
     d="M555.476,32.057c-0.312-0.312-0.436-0.754-0.479-1.133c-0.045,0.379-0.168,0.822-0.479,1.133  c-0.312,0.311-0.754,0.435-1.134,0.479h0.001c0.379,0.044,0.821,0.167,1.133,0.479c0.312,0.311,0.435,0.753,0.479,1.133  c0.043-0.379,0.167-0.822,0.479-1.133s0.752-0.435,1.131-0.479c0.002,0,0.003,0,0.003,0  C556.229,32.491,555.786,32.368,555.476,32.057z"
     id="path38" /></svg>